<mxfile host="65bd71144e" pages="2">
    <diagram id="Nlns8Q_-cHu3iskQtI4c" name="DÃ©couverte APIs POSIX">
        <mxGraphModel dx="1391" dy="1605" grid="1" gridSize="10" guides="1" tooltips="1" connect="1" arrows="1" fold="1" page="1" pageScale="1" pageWidth="827" pageHeight="1169" math="0" shadow="0">
            <root>
                <mxCell id="4uVFJ_5hf8hKaI3c01Ca-0"/>
                <mxCell id="4uVFJ_5hf8hKaI3c01Ca-1" parent="4uVFJ_5hf8hKaI3c01Ca-0"/>
                <mxCell id="cIUTH0yGBABqUqhWSvWY-0" value="&lt;b&gt;thread&lt;/b&gt;:pthread_t" style="shape=umlLifeline;perimeter=lifelinePerimeter;whiteSpace=wrap;html=1;container=1;collapsible=0;recursiveResize=0;outlineConnect=0;" parent="4uVFJ_5hf8hKaI3c01Ca-1" vertex="1">
                    <mxGeometry x="-521.21" y="-1120" width="140" height="420" as="geometry"/>
                </mxCell>
                <mxCell id="cIUTH0yGBABqUqhWSvWY-1" value="" style="html=1;points=[];perimeter=orthogonalPerimeter;" parent="cIUTH0yGBABqUqhWSvWY-0" vertex="1">
                    <mxGeometry x="65" y="340" width="10" height="30" as="geometry"/>
                </mxCell>
                <mxCell id="7fsHdLgp7n8wrtmJlDF1-1" value="" style="html=1;points=[];perimeter=orthogonalPerimeter;" parent="cIUTH0yGBABqUqhWSvWY-0" vertex="1">
                    <mxGeometry x="65" y="130" width="10" height="80" as="geometry"/>
                </mxCell>
                <mxCell id="7fsHdLgp7n8wrtmJlDF1-2" value="" style="html=1;points=[];perimeter=orthogonalPerimeter;" parent="cIUTH0yGBABqUqhWSvWY-0" vertex="1">
                    <mxGeometry x="65" y="240" width="10" height="30" as="geometry"/>
                </mxCell>
                <mxCell id="7fsHdLgp7n8wrtmJlDF1-3" value="" style="html=1;points=[];perimeter=orthogonalPerimeter;" parent="cIUTH0yGBABqUqhWSvWY-0" vertex="1">
                    <mxGeometry x="65" y="400" width="10" height="20" as="geometry"/>
                </mxCell>
                <mxCell id="7fsHdLgp7n8wrtmJlDF1-12" value="" style="html=1;points=[];perimeter=orthogonalPerimeter;" parent="cIUTH0yGBABqUqhWSvWY-0" vertex="1">
                    <mxGeometry x="65" y="290" width="10" height="30" as="geometry"/>
                </mxCell>
                <mxCell id="cIUTH0yGBABqUqhWSvWY-2" value="&lt;b&gt;mutex&lt;/b&gt;: pthread_mutex_t" style="shape=umlLifeline;perimeter=lifelinePerimeter;whiteSpace=wrap;html=1;container=1;collapsible=0;recursiveResize=0;outlineConnect=0;" parent="4uVFJ_5hf8hKaI3c01Ca-1" vertex="1">
                    <mxGeometry x="-228.71" y="-1120" width="174" height="510" as="geometry"/>
                </mxCell>
                <mxCell id="cIUTH0yGBABqUqhWSvWY-3" value="" style="html=1;points=[];perimeter=orthogonalPerimeter;" parent="cIUTH0yGBABqUqhWSvWY-2" vertex="1">
                    <mxGeometry x="82" y="210" width="10" height="30" as="geometry"/>
                </mxCell>
                <mxCell id="7fsHdLgp7n8wrtmJlDF1-0" value="" style="html=1;points=[];perimeter=orthogonalPerimeter;" parent="cIUTH0yGBABqUqhWSvWY-2" vertex="1">
                    <mxGeometry x="82" y="270" width="10" height="20" as="geometry"/>
                </mxCell>
                <mxCell id="cIUTH0yGBABqUqhWSvWY-4" value="pthread_mutex_lock()" style="html=1;verticalAlign=bottom;endArrow=block;entryX=0;entryY=0;" parent="4uVFJ_5hf8hKaI3c01Ca-1" target="cIUTH0yGBABqUqhWSvWY-3" edge="1">
                    <mxGeometry relative="1" as="geometry">
                        <mxPoint x="-446.21000000000004" y="-910.0000000000002" as="sourcePoint"/>
                    </mxGeometry>
                </mxCell>
                <mxCell id="cIUTH0yGBABqUqhWSvWY-5" value="return" style="html=1;verticalAlign=bottom;endArrow=open;dashed=1;endSize=8;" parent="4uVFJ_5hf8hKaI3c01Ca-1" edge="1">
                    <mxGeometry relative="1" as="geometry">
                        <mxPoint x="-446.21000000000004" y="-879.69" as="targetPoint"/>
                        <mxPoint x="-148" y="-880" as="sourcePoint"/>
                    </mxGeometry>
                </mxCell>
                <mxCell id="cIUTH0yGBABqUqhWSvWY-6" value="produce" style="text;html=1;align=right;" parent="4uVFJ_5hf8hKaI3c01Ca-1" vertex="1">
                    <mxGeometry x="-540" y="-940" width="80" height="30" as="geometry"/>
                </mxCell>
                <mxCell id="cIUTH0yGBABqUqhWSvWY-7" value="main" style="shape=umlLifeline;perimeter=lifelinePerimeter;whiteSpace=wrap;html=1;container=1;collapsible=0;recursiveResize=0;outlineConnect=0;" parent="4uVFJ_5hf8hKaI3c01Ca-1" vertex="1">
                    <mxGeometry x="-740" y="-1120" width="150" height="510" as="geometry"/>
                </mxCell>
                <mxCell id="cIUTH0yGBABqUqhWSvWY-8" value="" style="html=1;points=[];perimeter=orthogonalPerimeter;" parent="cIUTH0yGBABqUqhWSvWY-7" vertex="1">
                    <mxGeometry x="70" y="60" width="10" height="100" as="geometry"/>
                </mxCell>
                <mxCell id="cIUTH0yGBABqUqhWSvWY-9" value="" style="html=1;points=[];perimeter=orthogonalPerimeter;" parent="cIUTH0yGBABqUqhWSvWY-7" vertex="1">
                    <mxGeometry x="70" y="420" width="10" height="30" as="geometry"/>
                </mxCell>
                <mxCell id="cIUTH0yGBABqUqhWSvWY-10" value="pthread_mutex_unlock()" style="html=1;verticalAlign=bottom;endArrow=block;" parent="4uVFJ_5hf8hKaI3c01Ca-1" edge="1">
                    <mxGeometry relative="1" as="geometry">
                        <mxPoint x="-446.21000000000004" y="-850" as="sourcePoint"/>
                        <mxPoint x="-147" y="-850" as="targetPoint"/>
                    </mxGeometry>
                </mxCell>
                <mxCell id="cIUTH0yGBABqUqhWSvWY-11" value="return" style="html=1;verticalAlign=bottom;endArrow=open;dashed=1;endSize=8;exitX=-0.029;exitY=0.967;exitDx=0;exitDy=0;exitPerimeter=0;" parent="4uVFJ_5hf8hKaI3c01Ca-1" source="7fsHdLgp7n8wrtmJlDF1-0" edge="1">
                    <mxGeometry relative="1" as="geometry">
                        <mxPoint x="-446" y="-831" as="targetPoint"/>
                        <mxPoint x="-150.5" y="-835.0000000000002" as="sourcePoint"/>
                    </mxGeometry>
                </mxCell>
                <mxCell id="cIUTH0yGBABqUqhWSvWY-12" value="pthread_create()" style="html=1;verticalAlign=bottom;endArrow=block;" parent="4uVFJ_5hf8hKaI3c01Ca-1" edge="1">
                    <mxGeometry relative="1" as="geometry">
                        <mxPoint x="-660" y="-986" as="sourcePoint"/>
                        <mxPoint x="-456" y="-986" as="targetPoint"/>
                    </mxGeometry>
                </mxCell>
                <mxCell id="cIUTH0yGBABqUqhWSvWY-13" value="pthread_join()" style="html=1;verticalAlign=bottom;endArrow=block;" parent="4uVFJ_5hf8hKaI3c01Ca-1" edge="1">
                    <mxGeometry relative="1" as="geometry">
                        <mxPoint x="-660" y="-960" as="sourcePoint"/>
                        <mxPoint x="-456" y="-960" as="targetPoint"/>
                    </mxGeometry>
                </mxCell>
                <mxCell id="cIUTH0yGBABqUqhWSvWY-14" value="pthread_join_return" style="html=1;verticalAlign=bottom;endArrow=open;dashed=1;endSize=8;" parent="4uVFJ_5hf8hKaI3c01Ca-1" target="cIUTH0yGBABqUqhWSvWY-9" edge="1">
                    <mxGeometry relative="1" as="geometry">
                        <mxPoint x="-660" y="-870.0000000000002" as="targetPoint"/>
                        <mxPoint x="-457" y="-700" as="sourcePoint"/>
                    </mxGeometry>
                </mxCell>
                <mxCell id="Bjl9yKFlNQ5HPSld5YIy-0" value="&lt;b&gt;semaphore&lt;/b&gt;: sem_t" style="shape=umlLifeline;perimeter=lifelinePerimeter;whiteSpace=wrap;html=1;container=1;collapsible=0;recursiveResize=0;outlineConnect=0;" parent="4uVFJ_5hf8hKaI3c01Ca-1" vertex="1">
                    <mxGeometry x="-20" y="-1120" width="174" height="470" as="geometry"/>
                </mxCell>
                <mxCell id="7fsHdLgp7n8wrtmJlDF1-4" value="" style="html=1;points=[];perimeter=orthogonalPerimeter;" parent="Bjl9yKFlNQ5HPSld5YIy-0" vertex="1">
                    <mxGeometry x="82" y="85" width="10" height="30" as="geometry"/>
                </mxCell>
                <mxCell id="7fsHdLgp7n8wrtmJlDF1-5" value="" style="html=1;points=[];perimeter=orthogonalPerimeter;" parent="Bjl9yKFlNQ5HPSld5YIy-0" vertex="1">
                    <mxGeometry x="82" y="318" width="10" height="22" as="geometry"/>
                </mxCell>
                <mxCell id="7fsHdLgp7n8wrtmJlDF1-6" value="" style="html=1;points=[];perimeter=orthogonalPerimeter;" parent="Bjl9yKFlNQ5HPSld5YIy-0" vertex="1">
                    <mxGeometry x="82" y="370" width="10" height="30" as="geometry"/>
                </mxCell>
                <mxCell id="Bjl9yKFlNQ5HPSld5YIy-3" value="sem_open()" style="html=1;verticalAlign=bottom;endArrow=block;exitX=1.02;exitY=0.294;exitDx=0;exitDy=0;exitPerimeter=0;entryX=-0.06;entryY=-0.003;entryDx=0;entryDy=0;entryPerimeter=0;" parent="4uVFJ_5hf8hKaI3c01Ca-1" source="cIUTH0yGBABqUqhWSvWY-8" edge="1">
                    <mxGeometry relative="1" as="geometry">
                        <mxPoint x="-436.21000000000004" y="-940.0000000000002" as="sourcePoint"/>
                        <mxPoint x="61.40000000000009" y="-1031.1100000000001" as="targetPoint"/>
                    </mxGeometry>
                </mxCell>
                <mxCell id="Bjl9yKFlNQ5HPSld5YIy-4" value="sem_post()" style="html=1;verticalAlign=bottom;endArrow=block;" parent="4uVFJ_5hf8hKaI3c01Ca-1" edge="1">
                    <mxGeometry relative="1" as="geometry">
                        <mxPoint x="-446" y="-800" as="sourcePoint"/>
                        <mxPoint x="61" y="-800" as="targetPoint"/>
                    </mxGeometry>
                </mxCell>
                <mxCell id="Bjl9yKFlNQ5HPSld5YIy-5" value="return" style="html=1;verticalAlign=bottom;endArrow=open;dashed=1;endSize=8;" parent="4uVFJ_5hf8hKaI3c01Ca-1" edge="1">
                    <mxGeometry relative="1" as="geometry">
                        <mxPoint x="-446.21000000000004" y="-780" as="targetPoint"/>
                        <mxPoint x="61" y="-780" as="sourcePoint"/>
                    </mxGeometry>
                </mxCell>
                <mxCell id="Bjl9yKFlNQ5HPSld5YIy-6" value="sem_wait()" style="html=1;verticalAlign=bottom;endArrow=block;entryX=-0.048;entryY=0.776;entryDx=0;entryDy=0;entryPerimeter=0;exitX=0.726;exitY=0.993;exitDx=0;exitDy=0;exitPerimeter=0;" parent="4uVFJ_5hf8hKaI3c01Ca-1" source="cIUTH0yGBABqUqhWSvWY-1" edge="1">
                    <mxGeometry relative="1" as="geometry">
                        <mxPoint x="-443.52" y="-750" as="sourcePoint"/>
                        <mxPoint x="61.99999999999998" y="-749.8800000000001" as="targetPoint"/>
                    </mxGeometry>
                </mxCell>
                <mxCell id="Bjl9yKFlNQ5HPSld5YIy-7" value="return" style="html=1;verticalAlign=bottom;endArrow=open;dashed=1;endSize=8;" parent="4uVFJ_5hf8hKaI3c01Ca-1" target="7fsHdLgp7n8wrtmJlDF1-3" edge="1">
                    <mxGeometry relative="1" as="geometry">
                        <mxPoint x="-440" y="-724" as="targetPoint"/>
                        <mxPoint x="60" y="-720" as="sourcePoint"/>
                    </mxGeometry>
                </mxCell>
                <mxCell id="Bjl9yKFlNQ5HPSld5YIy-8" value="sem_destroy()" style="html=1;verticalAlign=bottom;endArrow=block;exitX=0.874;exitY=0.139;exitDx=0;exitDy=0;exitPerimeter=0;" parent="4uVFJ_5hf8hKaI3c01Ca-1" edge="1">
                    <mxGeometry relative="1" as="geometry">
                        <mxPoint x="-660" y="-670" as="sourcePoint"/>
                        <mxPoint x="60" y="-669" as="targetPoint"/>
                    </mxGeometry>
                </mxCell>
                <mxCell id="7fsHdLgp7n8wrtmJlDF1-7" value="" style="html=1;points=[];perimeter=orthogonalPerimeter;" parent="4uVFJ_5hf8hKaI3c01Ca-1" vertex="1">
                    <mxGeometry x="62" y="-670" width="10" height="20" as="geometry"/>
                </mxCell>
                <mxCell id="7fsHdLgp7n8wrtmJlDF1-8" value="return" style="html=1;verticalAlign=bottom;endArrow=open;dashed=1;endSize=8;exitX=-0.2;exitY=1.01;exitDx=0;exitDy=0;exitPerimeter=0;entryX=1.3;entryY=0.57;entryDx=0;entryDy=0;entryPerimeter=0;" parent="4uVFJ_5hf8hKaI3c01Ca-1" source="7fsHdLgp7n8wrtmJlDF1-4" target="cIUTH0yGBABqUqhWSvWY-8" edge="1">
                    <mxGeometry relative="1" as="geometry">
                        <mxPoint x="-660" y="-1009.69" as="targetPoint"/>
                        <mxPoint x="-361.78999999999996" y="-1010" as="sourcePoint"/>
                    </mxGeometry>
                </mxCell>
                <mxCell id="7fsHdLgp7n8wrtmJlDF1-10" value="return" style="html=1;verticalAlign=bottom;endArrow=open;dashed=1;endSize=8;exitX=-0.2;exitY=1.01;exitDx=0;exitDy=0;exitPerimeter=0;" parent="4uVFJ_5hf8hKaI3c01Ca-1" edge="1">
                    <mxGeometry relative="1" as="geometry">
                        <mxPoint x="-658" y="-649.99" as="targetPoint"/>
                        <mxPoint x="62" y="-650" as="sourcePoint"/>
                    </mxGeometry>
                </mxCell>
                <mxCell id="7fsHdLgp7n8wrtmJlDF1-11" value="" style="html=1;points=[];perimeter=orthogonalPerimeter;" parent="4uVFJ_5hf8hKaI3c01Ca-1" vertex="1">
                    <mxGeometry x="-670" y="-650" width="10" height="30" as="geometry"/>
                </mxCell>
            </root>
        </mxGraphModel>
    </diagram>
    <diagram id="yeaqu1F34kHPNHF6mssP" name="Exercice Principal">
        <mxGraphModel dx="2445" dy="1496" grid="1" gridSize="10" guides="1" tooltips="1" connect="1" arrows="1" fold="1" page="1" pageScale="1" pageWidth="850" pageHeight="1100" math="0" shadow="0">
            <root>
                <mxCell id="0"/>
                <mxCell id="1" parent="0"/>
                <mxCell id="nDVz6QAk0CL7eOiTC_jA-3" value="" style="edgeStyle=orthogonalEdgeStyle;rounded=0;orthogonalLoop=1;jettySize=auto;html=1;" parent="1" source="fEL-3-x19ATJo7vxv6HR-24" target="nDVz6QAk0CL7eOiTC_jA-1" edge="1">
                    <mxGeometry relative="1" as="geometry">
                        <Array as="points">
                            <mxPoint x="-230" y="-80"/>
                            <mxPoint x="-230" y="-137"/>
                        </Array>
                    </mxGeometry>
                </mxCell>
                <mxCell id="fEL-3-x19ATJo7vxv6HR-24" value="&lt;p style=&quot;margin: 0px ; margin-top: 4px ; text-align: center&quot;&gt;&lt;b&gt;MessageAdder&lt;/b&gt;&lt;/p&gt;&lt;hr size=&quot;1&quot;&gt;&lt;p style=&quot;margin: 0px ; margin-left: 4px&quot;&gt;- consumer: pthread_t&lt;/p&gt;&lt;p style=&quot;margin: 0px ; margin-left: 4px&quot;&gt;- currentSum: MSG_BLOCK&lt;br style=&quot;padding: 0px ; margin: 0px&quot;&gt;- consumedCount: Integer&lt;/p&gt;&lt;hr size=&quot;1&quot;&gt;&lt;p style=&quot;margin: 0px ; margin-left: 4px&quot;&gt;- sum()&lt;/p&gt;&lt;p style=&quot;margin: 0px ; margin-left: 4px&quot;&gt;&lt;span&gt;+ messageAdderInit()&lt;/span&gt;&lt;br&gt;&lt;/p&gt;&lt;p style=&quot;margin: 0px ; margin-left: 4px&quot;&gt;+ messageAdderJoin()&lt;br&gt;&lt;/p&gt;" style="verticalAlign=top;align=left;overflow=fill;fontSize=12;fontFamily=Helvetica;html=1;shadow=0;" parent="1" vertex="1">
                    <mxGeometry x="-520" y="-153" width="198.71" height="145" as="geometry"/>
                </mxCell>
                <mxCell id="fEL-3-x19ATJo7vxv6HR-27" value="&lt;p style=&quot;margin: 0px ; margin-top: 4px ; text-align: center&quot;&gt;&lt;b&gt;MultitaskingAccumulator&lt;/b&gt;&lt;/p&gt;&lt;hr size=&quot;1&quot;&gt;&lt;p style=&quot;margin: 0px ; margin-left: 4px&quot;&gt;+ main()&lt;/p&gt;" style="verticalAlign=top;align=left;overflow=fill;fontSize=12;fontFamily=Helvetica;html=1;shadow=0;" parent="1" vertex="1">
                    <mxGeometry x="-658.71" y="-385" width="160" height="140" as="geometry"/>
                </mxCell>
                <mxCell id="fEL-3-x19ATJo7vxv6HR-35" value="1" style="endArrow=open;html=1;endSize=12;startArrow=diamondThin;startSize=14;startFill=1;edgeStyle=orthogonalEdgeStyle;align=left;verticalAlign=bottom;fillColor=#000000;entryX=0;entryY=0.25;entryDx=0;entryDy=0;exitX=1;exitY=0.5;exitDx=0;exitDy=0;" parent="1" source="fEL-3-x19ATJo7vxv6HR-27" target="fEL-3-x19ATJo7vxv6HR-54" edge="1">
                    <mxGeometry x="-1" y="3" relative="1" as="geometry">
                        <mxPoint x="-638.71" y="-185" as="sourcePoint"/>
                        <mxPoint x="-478.71" y="-185" as="targetPoint"/>
                    </mxGeometry>
                </mxCell>
                <mxCell id="fEL-3-x19ATJo7vxv6HR-39" value="1" style="endArrow=open;html=1;endSize=12;startArrow=diamondThin;startSize=14;startFill=1;edgeStyle=orthogonalEdgeStyle;align=left;verticalAlign=bottom;fillColor=#000000;exitX=1;exitY=0.75;exitDx=0;exitDy=0;" parent="1" source="fEL-3-x19ATJo7vxv6HR-27" target="fEL-3-x19ATJo7vxv6HR-24" edge="1">
                    <mxGeometry x="-1" y="3" relative="1" as="geometry">
                        <mxPoint x="-488.71" y="-305" as="sourcePoint"/>
                        <mxPoint x="-428.71" y="-342" as="targetPoint"/>
                    </mxGeometry>
                </mxCell>
                <mxCell id="fEL-3-x19ATJo7vxv6HR-54" value="&lt;p style=&quot;margin: 0px ; margin-top: 4px ; text-align: center&quot;&gt;&lt;b&gt;AcquisitionManager&lt;/b&gt;&lt;/p&gt;&lt;hr size=&quot;1&quot;&gt;&lt;p style=&quot;margin: 0px ; margin-left: 4px&quot;&gt;- producers[4]: pthread_t&lt;/p&gt;&lt;p style=&quot;margin: 0px ; margin-left: 4px&quot;&gt;- m1: pthread_mutex_t&lt;/p&gt;&lt;p style=&quot;margin: 0px ; margin-left: 4px&quot;&gt;- producedCount: Integer&lt;/p&gt;&lt;p style=&quot;margin: 0px ; margin-left: 4px&quot;&gt;- SL: sem_t&lt;/p&gt;&lt;p style=&quot;margin: 0px ; margin-left: 4px&quot;&gt;-SO: sem_t&lt;/p&gt;&lt;hr size=&quot;1&quot;&gt;&lt;p style=&quot;margin: 0px ; margin-left: 4px&quot;&gt;- produce()&lt;/p&gt;&amp;nbsp;+ acquisitionManagerInit()&lt;br&gt;&lt;p style=&quot;margin: 0px ; margin-left: 4px&quot;&gt;+ acquisitionManagerJoin()&lt;/p&gt;" style="verticalAlign=top;align=left;overflow=fill;fontSize=12;fontFamily=Helvetica;html=1;shadow=0;" parent="1" vertex="1">
                    <mxGeometry x="-438.71" y="-435" width="205" height="170" as="geometry"/>
                </mxCell>
                <mxCell id="fEL-3-x19ATJo7vxv6HR-64" value="1" style="endArrow=open;html=1;endSize=12;startArrow=diamondThin;startSize=14;startFill=1;edgeStyle=orthogonalEdgeStyle;align=left;verticalAlign=bottom;fillColor=#000000;exitX=0.75;exitY=1;exitDx=0;exitDy=0;entryX=0;entryY=0.5;entryDx=0;entryDy=0;" parent="1" source="fEL-3-x19ATJo7vxv6HR-27" target="fEL-3-x19ATJo7vxv6HR-65" edge="1">
                    <mxGeometry x="0.4516" y="190" relative="1" as="geometry">
                        <mxPoint x="-488.71" y="-270" as="sourcePoint"/>
                        <mxPoint x="-428.71" y="-195" as="targetPoint"/>
                        <mxPoint as="offset"/>
                    </mxGeometry>
                </mxCell>
                <mxCell id="fEL-3-x19ATJo7vxv6HR-65" value="&lt;p style=&quot;margin: 0px ; margin-top: 4px ; text-align: center&quot;&gt;&lt;b&gt;DisplayManager&lt;/b&gt;&lt;/p&gt;&lt;hr size=&quot;1&quot;&gt;&lt;p style=&quot;margin: 0px ; margin-left: 4px&quot;&gt;display: pthread_t&lt;/p&gt;&lt;hr size=&quot;1&quot;&gt;&lt;p style=&quot;margin: 0px ; margin-left: 4px&quot;&gt;- display()&lt;/p&gt;&lt;p style=&quot;margin: 0px ; margin-left: 4px&quot;&gt;+ displayManagerInit()&lt;/p&gt;&lt;p style=&quot;margin: 0px ; margin-left: 4px&quot;&gt;+ displayManagerJoin()&lt;br&gt;&lt;/p&gt;" style="verticalAlign=top;align=left;overflow=fill;fontSize=12;fontFamily=Helvetica;html=1;shadow=0;" parent="1" vertex="1">
                    <mxGeometry x="-438.71" y="40" width="160" height="140" as="geometry"/>
                </mxCell>
                <mxCell id="fEL-3-x19ATJo7vxv6HR-66" value="Â«dataTypeÂ»&lt;br&gt;&lt;b&gt;MSG_BLOCK&lt;/b&gt;" style="html=1;shadow=0;" parent="1" vertex="1">
                    <mxGeometry x="-660" y="-195" width="110" height="50" as="geometry"/>
                </mxCell>
                <mxCell id="pLuQ7xj04wKehVz2EtiJ-8" value="&lt;b&gt;MultitaskingAccumulator&lt;/b&gt;" style="html=1;" parent="1" vertex="1">
                    <mxGeometry x="-1260" y="-215" width="200" height="90" as="geometry"/>
                </mxCell>
                <mxCell id="pLuQ7xj04wKehVz2EtiJ-9" value="" style="shape=component;jettyWidth=8;jettyHeight=4;" parent="pLuQ7xj04wKehVz2EtiJ-8" vertex="1">
                    <mxGeometry x="1" width="20" height="20" relative="1" as="geometry">
                        <mxPoint x="-27" y="7" as="offset"/>
                    </mxGeometry>
                </mxCell>
                <mxCell id="pLuQ7xj04wKehVz2EtiJ-10" value="&lt;span style=&quot;text-align: left&quot;&gt;Display&lt;/span&gt;" style="html=1;" parent="1" vertex="1">
                    <mxGeometry x="-980" y="-215" width="180" height="90" as="geometry"/>
                </mxCell>
                <mxCell id="pLuQ7xj04wKehVz2EtiJ-11" value="" style="shape=component;jettyWidth=8;jettyHeight=4;" parent="pLuQ7xj04wKehVz2EtiJ-10" vertex="1">
                    <mxGeometry x="1" width="20" height="20" relative="1" as="geometry">
                        <mxPoint x="-27" y="7" as="offset"/>
                    </mxGeometry>
                </mxCell>
                <mxCell id="pLuQ7xj04wKehVz2EtiJ-12" value="&lt;div style=&quot;text-align: left&quot;&gt;&lt;span&gt;SensorManager&lt;/span&gt;&lt;/div&gt;" style="html=1;" parent="1" vertex="1">
                    <mxGeometry x="-1520" y="-215" width="180" height="90" as="geometry"/>
                </mxCell>
                <mxCell id="pLuQ7xj04wKehVz2EtiJ-13" value="" style="shape=component;jettyWidth=8;jettyHeight=4;" parent="pLuQ7xj04wKehVz2EtiJ-12" vertex="1">
                    <mxGeometry x="1" width="20" height="20" relative="1" as="geometry">
                        <mxPoint x="-27" y="7" as="offset"/>
                    </mxGeometry>
                </mxCell>
                <mxCell id="pLuQ7xj04wKehVz2EtiJ-14" value="" style="rounded=0;orthogonalLoop=1;jettySize=auto;html=1;endArrow=none;endFill=0;" parent="1" source="pLuQ7xj04wKehVz2EtiJ-12" target="pLuQ7xj04wKehVz2EtiJ-16" edge="1">
                    <mxGeometry relative="1" as="geometry">
                        <mxPoint x="-1270" y="-150" as="sourcePoint"/>
                    </mxGeometry>
                </mxCell>
                <mxCell id="pLuQ7xj04wKehVz2EtiJ-15" value="" style="rounded=0;orthogonalLoop=1;jettySize=auto;html=1;endArrow=halfCircle;endFill=0;entryX=0.5;entryY=0.5;entryDx=0;entryDy=0;endSize=6;strokeWidth=1;" parent="1" source="pLuQ7xj04wKehVz2EtiJ-8" target="pLuQ7xj04wKehVz2EtiJ-16" edge="1">
                    <mxGeometry relative="1" as="geometry">
                        <mxPoint x="-1250" y="-170" as="sourcePoint"/>
                    </mxGeometry>
                </mxCell>
                <mxCell id="pLuQ7xj04wKehVz2EtiJ-16" value="" style="ellipse;whiteSpace=wrap;html=1;fontFamily=Helvetica;fontSize=12;fontColor=#000000;align=center;strokeColor=#000000;fillColor=#ffffff;points=[];aspect=fixed;resizable=0;" parent="1" vertex="1">
                    <mxGeometry x="-1307" y="-175" width="10" height="10" as="geometry"/>
                </mxCell>
                <mxCell id="pLuQ7xj04wKehVz2EtiJ-18" value="" style="rounded=0;orthogonalLoop=1;jettySize=auto;html=1;endArrow=none;endFill=0;exitX=0;exitY=0.5;exitDx=0;exitDy=0;" parent="1" source="pLuQ7xj04wKehVz2EtiJ-10" target="pLuQ7xj04wKehVz2EtiJ-20" edge="1">
                    <mxGeometry relative="1" as="geometry">
                        <mxPoint x="-1050" y="-170" as="sourcePoint"/>
                    </mxGeometry>
                </mxCell>
                <mxCell id="pLuQ7xj04wKehVz2EtiJ-20" value="" style="ellipse;whiteSpace=wrap;html=1;fontFamily=Helvetica;fontSize=12;fontColor=#000000;align=center;strokeColor=#000000;fillColor=#ffffff;points=[];aspect=fixed;resizable=0;direction=north;" parent="1" vertex="1">
                    <mxGeometry x="-1026" y="-175" width="10" height="10" as="geometry"/>
                </mxCell>
                <mxCell id="pLuQ7xj04wKehVz2EtiJ-21" value="" style="rounded=0;orthogonalLoop=1;jettySize=auto;html=1;endArrow=halfCircle;endFill=0;entryX=0.5;entryY=0.5;entryDx=0;entryDy=0;endSize=6;strokeWidth=1;exitX=1;exitY=0.5;exitDx=0;exitDy=0;" parent="1" source="pLuQ7xj04wKehVz2EtiJ-8" target="pLuQ7xj04wKehVz2EtiJ-20" edge="1">
                    <mxGeometry relative="1" as="geometry">
                        <mxPoint x="-1080" y="-170" as="sourcePoint"/>
                        <mxPoint x="-1010" y="-170" as="targetPoint"/>
                        <Array as="points"/>
                    </mxGeometry>
                </mxCell>
                <mxCell id="pLuQ7xj04wKehVz2EtiJ-25" value="Text" style="text;html=1;align=center;verticalAlign=middle;resizable=0;points=[];;autosize=1;" parent="1" vertex="1">
                    <mxGeometry x="-1327" y="-28" width="40" height="20" as="geometry"/>
                </mxCell>
                <mxCell id="pLuQ7xj04wKehVz2EtiJ-26" value="&lt;p style=&quot;margin: 0px ; margin-top: 4px ; text-align: center&quot;&gt;Â«interfaceÂ»&lt;br&gt;&lt;b&gt;ISensor&lt;/b&gt;&lt;/p&gt;&lt;hr size=&quot;1&quot;&gt;&lt;p style=&quot;margin: 0px ; margin-left: 4px&quot;&gt;&lt;br&gt;&lt;/p&gt;&lt;hr size=&quot;1&quot;&gt;&lt;p style=&quot;margin: 0px ; margin-left: 4px&quot;&gt;+ getInput(int i): MSG_BLOCK&lt;br&gt;&lt;/p&gt;" style="verticalAlign=top;align=left;overflow=fill;fontSize=12;fontFamily=Helvetica;html=1;" parent="1" vertex="1">
                    <mxGeometry x="-1397" y="-105" width="190" height="135" as="geometry"/>
                </mxCell>
                <mxCell id="pLuQ7xj04wKehVz2EtiJ-27" value="ISensor" style="text;html=1;align=center;" parent="1" vertex="1">
                    <mxGeometry x="-1337" y="-165" width="70" height="30" as="geometry"/>
                </mxCell>
                <mxCell id="pLuQ7xj04wKehVz2EtiJ-28" value="&lt;p style=&quot;margin: 0px ; margin-top: 4px ; text-align: center&quot;&gt;Â«interfaceÂ»&lt;br&gt;&lt;b&gt;IDisplay&lt;/b&gt;&lt;/p&gt;&lt;hr size=&quot;1&quot;&gt;&lt;p style=&quot;margin: 0px ; margin-left: 4px&quot;&gt;&lt;br&gt;&lt;/p&gt;&lt;hr size=&quot;1&quot;&gt;&lt;p style=&quot;margin: 0px ; margin-left: 4px&quot;&gt;+ messageDisplay(MSG_BLOCK mBlock)&lt;br&gt;&lt;/p&gt;&lt;p style=&quot;margin: 0px ; margin-left: 4px&quot;&gt;+ print(Integer producedCount, Integer consumedCount)&lt;/p&gt;" style="verticalAlign=top;align=left;overflow=fill;fontSize=12;fontFamily=Helvetica;html=1;" parent="1" vertex="1">
                    <mxGeometry x="-1125" y="-105" width="325" height="135" as="geometry"/>
                </mxCell>
                <mxCell id="pLuQ7xj04wKehVz2EtiJ-31" value="Â«dataTypeÂ»&lt;br&gt;&lt;b&gt;MSG_BLOCK&lt;/b&gt;" style="html=1;shadow=0;" parent="1" vertex="1">
                    <mxGeometry x="-1520" y="-105" width="110" height="50" as="geometry"/>
                </mxCell>
                <mxCell id="pLuQ7xj04wKehVz2EtiJ-34" value="IDisplay" style="text;html=1;align=center;" parent="1" vertex="1">
                    <mxGeometry x="-1056" y="-165" width="70" height="30" as="geometry"/>
                </mxCell>
                <mxCell id="pLuQ7xj04wKehVz2EtiJ-39" value="&lt;b&gt;MultitaskingAccumulator&lt;/b&gt;" style="html=1;verticalAlign=top;" parent="1" vertex="1">
                    <mxGeometry x="-1474" y="-795" width="720" height="440" as="geometry"/>
                </mxCell>
                <mxCell id="pLuQ7xj04wKehVz2EtiJ-40" value="" style="shape=component;jettyWidth=8;jettyHeight=4;" parent="pLuQ7xj04wKehVz2EtiJ-39" vertex="1">
                    <mxGeometry x="1" width="20" height="20" relative="1" as="geometry">
                        <mxPoint x="-27" y="7" as="offset"/>
                    </mxGeometry>
                </mxCell>
                <mxCell id="pLuQ7xj04wKehVz2EtiJ-41" value="&lt;span style=&quot;text-align: left&quot;&gt;MessageAdder&lt;/span&gt;" style="html=1;" parent="pLuQ7xj04wKehVz2EtiJ-39" vertex="1">
                    <mxGeometry x="305" y="100" width="110" height="80" as="geometry"/>
                </mxCell>
                <mxCell id="pLuQ7xj04wKehVz2EtiJ-42" value="" style="shape=component;jettyWidth=8;jettyHeight=4;" parent="pLuQ7xj04wKehVz2EtiJ-41" vertex="1">
                    <mxGeometry x="1" width="20" height="20" relative="1" as="geometry">
                        <mxPoint x="-27" y="7" as="offset"/>
                    </mxGeometry>
                </mxCell>
                <mxCell id="pLuQ7xj04wKehVz2EtiJ-43" value="&lt;span style=&quot;text-align: left&quot;&gt;DisplayManager&lt;/span&gt;" style="html=1;" parent="pLuQ7xj04wKehVz2EtiJ-39" vertex="1">
                    <mxGeometry x="530" y="100" width="160" height="80" as="geometry"/>
                </mxCell>
                <mxCell id="pLuQ7xj04wKehVz2EtiJ-44" value="" style="shape=component;jettyWidth=8;jettyHeight=4;" parent="pLuQ7xj04wKehVz2EtiJ-43" vertex="1">
                    <mxGeometry x="1" width="20" height="20" relative="1" as="geometry">
                        <mxPoint x="-27" y="7" as="offset"/>
                    </mxGeometry>
                </mxCell>
                <mxCell id="pLuQ7xj04wKehVz2EtiJ-45" value="&lt;div style=&quot;text-align: left&quot;&gt;AcquisitionManager&lt;br&gt;&lt;/div&gt;" style="html=1;" parent="pLuQ7xj04wKehVz2EtiJ-39" vertex="1">
                    <mxGeometry x="30" y="100" width="160" height="80" as="geometry"/>
                </mxCell>
                <mxCell id="pLuQ7xj04wKehVz2EtiJ-46" value="" style="shape=component;jettyWidth=8;jettyHeight=4;" parent="pLuQ7xj04wKehVz2EtiJ-45" vertex="1">
                    <mxGeometry x="1" width="20" height="20" relative="1" as="geometry">
                        <mxPoint x="-27" y="7" as="offset"/>
                    </mxGeometry>
                </mxCell>
                <mxCell id="pLuQ7xj04wKehVz2EtiJ-47" value="" style="rounded=0;orthogonalLoop=1;jettySize=auto;html=1;endArrow=none;endFill=0;" parent="pLuQ7xj04wKehVz2EtiJ-39" source="pLuQ7xj04wKehVz2EtiJ-45" target="pLuQ7xj04wKehVz2EtiJ-49" edge="1">
                    <mxGeometry relative="1" as="geometry">
                        <mxPoint x="165.24590163934425" y="225" as="sourcePoint"/>
                    </mxGeometry>
                </mxCell>
                <mxCell id="pLuQ7xj04wKehVz2EtiJ-48" value="" style="rounded=0;orthogonalLoop=1;jettySize=auto;html=1;endArrow=halfCircle;endFill=0;entryX=0.5;entryY=0.5;entryDx=0;entryDy=0;endSize=6;strokeWidth=1;" parent="pLuQ7xj04wKehVz2EtiJ-39" source="pLuQ7xj04wKehVz2EtiJ-41" target="pLuQ7xj04wKehVz2EtiJ-49" edge="1">
                    <mxGeometry relative="1" as="geometry">
                        <mxPoint x="188.85245901639342" y="205" as="sourcePoint"/>
                    </mxGeometry>
                </mxCell>
                <mxCell id="pLuQ7xj04wKehVz2EtiJ-49" value="" style="ellipse;whiteSpace=wrap;html=1;fontFamily=Helvetica;fontSize=12;fontColor=#000000;align=center;strokeColor=#000000;fillColor=#ffffff;points=[];aspect=fixed;resizable=0;" parent="pLuQ7xj04wKehVz2EtiJ-39" vertex="1">
                    <mxGeometry x="240" y="135" width="10" height="10" as="geometry"/>
                </mxCell>
                <mxCell id="pLuQ7xj04wKehVz2EtiJ-50" value="" style="rounded=0;orthogonalLoop=1;jettySize=auto;html=1;endArrow=none;endFill=0;" parent="pLuQ7xj04wKehVz2EtiJ-39" source="pLuQ7xj04wKehVz2EtiJ-41" target="pLuQ7xj04wKehVz2EtiJ-51" edge="1">
                    <mxGeometry relative="1" as="geometry">
                        <mxPoint x="424.91803278688525" y="205" as="sourcePoint"/>
                    </mxGeometry>
                </mxCell>
                <mxCell id="pLuQ7xj04wKehVz2EtiJ-51" value="" style="ellipse;whiteSpace=wrap;html=1;fontFamily=Helvetica;fontSize=12;fontColor=#000000;align=center;strokeColor=#000000;fillColor=#ffffff;points=[];aspect=fixed;resizable=0;direction=north;" parent="pLuQ7xj04wKehVz2EtiJ-39" vertex="1">
                    <mxGeometry x="465" y="135" width="10" height="10" as="geometry"/>
                </mxCell>
                <mxCell id="pLuQ7xj04wKehVz2EtiJ-52" value="" style="rounded=0;orthogonalLoop=1;jettySize=auto;html=1;endArrow=halfCircle;endFill=0;endSize=6;strokeWidth=1;exitX=0;exitY=0.5;exitDx=0;exitDy=0;" parent="pLuQ7xj04wKehVz2EtiJ-39" source="pLuQ7xj04wKehVz2EtiJ-43" edge="1">
                    <mxGeometry relative="1" as="geometry">
                        <mxPoint x="419" y="140" as="sourcePoint"/>
                        <mxPoint x="470" y="140" as="targetPoint"/>
                        <Array as="points"/>
                    </mxGeometry>
                </mxCell>
                <mxCell id="pLuQ7xj04wKehVz2EtiJ-101" value="" style="rounded=0;orthogonalLoop=1;jettySize=auto;html=1;endArrow=none;endFill=0;exitX=1;exitY=0.75;exitDx=0;exitDy=0;" parent="pLuQ7xj04wKehVz2EtiJ-39" source="pLuQ7xj04wKehVz2EtiJ-45" target="pLuQ7xj04wKehVz2EtiJ-102" edge="1">
                    <mxGeometry relative="1" as="geometry">
                        <mxPoint x="400" y="225" as="sourcePoint"/>
                        <Array as="points">
                            <mxPoint x="260" y="223"/>
                        </Array>
                    </mxGeometry>
                </mxCell>
                <mxCell id="pLuQ7xj04wKehVz2EtiJ-102" value="" style="ellipse;whiteSpace=wrap;html=1;fontFamily=Helvetica;fontSize=12;fontColor=#000000;align=center;strokeColor=#000000;fillColor=#ffffff;points=[];aspect=fixed;resizable=0;direction=north;" parent="pLuQ7xj04wKehVz2EtiJ-39" vertex="1">
                    <mxGeometry x="354" y="220" width="10" height="10" as="geometry"/>
                </mxCell>
                <mxCell id="pLuQ7xj04wKehVz2EtiJ-103" value="" style="rounded=0;orthogonalLoop=1;jettySize=auto;html=1;endArrow=halfCircle;endFill=0;endSize=6;strokeWidth=1;exitX=0;exitY=0.75;exitDx=0;exitDy=0;" parent="pLuQ7xj04wKehVz2EtiJ-39" source="pLuQ7xj04wKehVz2EtiJ-43" edge="1">
                    <mxGeometry relative="1" as="geometry">
                        <mxPoint x="320" y="225" as="sourcePoint"/>
                        <mxPoint x="360" y="225" as="targetPoint"/>
                        <Array as="points">
                            <mxPoint x="460" y="225"/>
                        </Array>
                    </mxGeometry>
                </mxCell>
                <mxCell id="pLuQ7xj04wKehVz2EtiJ-104" value="IAcquisitionManager" style="text;html=1;align=center;" parent="pLuQ7xj04wKehVz2EtiJ-39" vertex="1">
                    <mxGeometry x="324" y="230" width="70" height="30" as="geometry"/>
                </mxCell>
                <mxCell id="pLuQ7xj04wKehVz2EtiJ-110" value="Â«interfaceÂ»&#10;IAcquisitionManager" style="swimlane;fontStyle=1;align=center;verticalAlign=top;childLayout=stackLayout;horizontal=1;startSize=40;horizontalStack=0;resizeParent=1;resizeParentMax=0;resizeLast=0;collapsible=1;marginBottom=0;shadow=0;" parent="pLuQ7xj04wKehVz2EtiJ-39" vertex="1">
                    <mxGeometry x="80" y="260" width="190" height="80" as="geometry"/>
                </mxCell>
                <mxCell id="pLuQ7xj04wKehVz2EtiJ-111" value="+ getProducedCount(): Integer&#10;+ getMessage(): MSG_BLOCK&#10;Â &#10;&#10;&#10;" style="text;strokeColor=none;fillColor=none;align=left;verticalAlign=top;spacingLeft=4;spacingRight=4;overflow=hidden;rotatable=0;points=[[0,0.5],[1,0.5]];portConstraint=eastwest;" parent="pLuQ7xj04wKehVz2EtiJ-110" vertex="1">
                    <mxGeometry y="40" width="190" height="40" as="geometry"/>
                </mxCell>
                <mxCell id="pLuQ7xj04wKehVz2EtiJ-113" value="Â«interfaceÂ»&#10;IMessageAdder" style="swimlane;fontStyle=1;align=center;verticalAlign=top;childLayout=stackLayout;horizontal=1;startSize=38;horizontalStack=0;resizeParent=1;resizeParentMax=0;resizeLast=0;collapsible=1;marginBottom=0;shadow=0;" parent="pLuQ7xj04wKehVz2EtiJ-39" vertex="1">
                    <mxGeometry x="480" y="257" width="200" height="78" as="geometry"/>
                </mxCell>
                <mxCell id="pLuQ7xj04wKehVz2EtiJ-114" value="+ getCurrentSum(): MSG_BLOCK&#10;+ getConsumedCount(): Integer&#10;&#10;" style="text;strokeColor=none;fillColor=none;align=left;verticalAlign=top;spacingLeft=4;spacingRight=4;overflow=hidden;rotatable=0;points=[[0,0.5],[1,0.5]];portConstraint=eastwest;" parent="pLuQ7xj04wKehVz2EtiJ-113" vertex="1">
                    <mxGeometry y="38" width="200" height="40" as="geometry"/>
                </mxCell>
                <mxCell id="pLuQ7xj04wKehVz2EtiJ-116" value="IAcquisitionManager" style="text;html=1;align=center;" parent="pLuQ7xj04wKehVz2EtiJ-39" vertex="1">
                    <mxGeometry x="190" y="105" width="110" height="30" as="geometry"/>
                </mxCell>
                <mxCell id="pLuQ7xj04wKehVz2EtiJ-117" value="IMessageAdder" style="text;html=1;align=center;" parent="pLuQ7xj04wKehVz2EtiJ-39" vertex="1">
                    <mxGeometry x="435" y="105" width="70" height="30" as="geometry"/>
                </mxCell>
                <mxCell id="pLuQ7xj04wKehVz2EtiJ-122" value="Â«dataTypeÂ»&lt;br&gt;&lt;b&gt;MSG_BLOCK&lt;/b&gt;" style="html=1;shadow=0;" parent="pLuQ7xj04wKehVz2EtiJ-39" vertex="1">
                    <mxGeometry x="530" y="350" width="110" height="50" as="geometry"/>
                </mxCell>
                <mxCell id="pLuQ7xj04wKehVz2EtiJ-56" value="" style="rounded=0;orthogonalLoop=1;jettySize=auto;html=1;endArrow=halfCircle;endFill=0;endSize=6;strokeWidth=1;exitX=0;exitY=0.5;exitDx=0;exitDy=0;" parent="1" source="pLuQ7xj04wKehVz2EtiJ-45" edge="1">
                    <mxGeometry relative="1" as="geometry">
                        <mxPoint x="-1423" y="-490" as="sourcePoint"/>
                        <mxPoint x="-1530" y="-655" as="targetPoint"/>
                    </mxGeometry>
                </mxCell>
                <mxCell id="pLuQ7xj04wKehVz2EtiJ-58" value="ISensor" style="text;html=1;align=center;" parent="1" vertex="1">
                    <mxGeometry x="-1560" y="-645" width="70" height="30" as="geometry"/>
                </mxCell>
                <mxCell id="pLuQ7xj04wKehVz2EtiJ-62" value="" style="rounded=0;orthogonalLoop=1;jettySize=auto;html=1;endArrow=halfCircle;endFill=0;endSize=6;strokeWidth=1;exitX=1;exitY=0.5;exitDx=0;exitDy=0;" parent="1" source="pLuQ7xj04wKehVz2EtiJ-43" edge="1">
                    <mxGeometry relative="1" as="geometry">
                        <mxPoint x="-850" y="60" as="sourcePoint"/>
                        <mxPoint x="-710" y="-655" as="targetPoint"/>
                        <Array as="points"/>
                    </mxGeometry>
                </mxCell>
                <mxCell id="pLuQ7xj04wKehVz2EtiJ-54" value="IDisplay" style="text;html=1;align=center;" parent="1" vertex="1">
                    <mxGeometry x="-741.3339344262295" y="-645" width="82.62295081967213" height="30" as="geometry"/>
                </mxCell>
                <mxCell id="pLuQ7xj04wKehVz2EtiJ-148" value="Â«interfaceÂ»&#10;IAcquisitionManager" style="swimlane;fontStyle=1;align=center;verticalAlign=top;childLayout=stackLayout;horizontal=1;startSize=40;horizontalStack=0;resizeParent=1;resizeParentMax=0;resizeLast=0;collapsible=1;marginBottom=0;shadow=0;" parent="1" vertex="1">
                    <mxGeometry x="-160" y="-435" width="180" height="100" as="geometry"/>
                </mxCell>
                <mxCell id="pLuQ7xj04wKehVz2EtiJ-149" value="+ getProducedCount(): Integer&#10;+ getMessage():MSG_BLOCK&#10;&#10;&#10;&#10;" style="text;strokeColor=none;fillColor=none;align=left;verticalAlign=top;spacingLeft=4;spacingRight=4;overflow=hidden;rotatable=0;points=[[0,0.5],[1,0.5]];portConstraint=eastwest;" parent="pLuQ7xj04wKehVz2EtiJ-148" vertex="1">
                    <mxGeometry y="40" width="180" height="60" as="geometry"/>
                </mxCell>
                <mxCell id="pLuQ7xj04wKehVz2EtiJ-150" value="Â«interfaceÂ»&#10;IMessageAdder" style="swimlane;fontStyle=1;align=center;verticalAlign=top;childLayout=stackLayout;horizontal=1;startSize=38;horizontalStack=0;resizeParent=1;resizeParentMax=0;resizeLast=0;collapsible=1;marginBottom=0;shadow=0;" parent="1" vertex="1">
                    <mxGeometry x="20" y="-273" width="220" height="98" as="geometry"/>
                </mxCell>
                <mxCell id="fXRlClugTOTBc5S8y01M-6" value="+ getCurrentSum(): MSG_BLOCK&#10;+ getConsumedCount(): Integer" style="text;strokeColor=none;fillColor=none;align=left;verticalAlign=top;spacingLeft=4;spacingRight=4;overflow=hidden;rotatable=0;points=[[0,0.5],[1,0.5]];portConstraint=eastwest;" parent="pLuQ7xj04wKehVz2EtiJ-150" vertex="1">
                    <mxGeometry y="38" width="220" height="60" as="geometry"/>
                </mxCell>
                <mxCell id="pLuQ7xj04wKehVz2EtiJ-153" value="" style="endArrow=block;dashed=1;endFill=0;endSize=12;html=1;entryX=0;entryY=0.5;entryDx=0;entryDy=0;exitX=1;exitY=0.5;exitDx=0;exitDy=0;" parent="1" source="fEL-3-x19ATJo7vxv6HR-54" target="pLuQ7xj04wKehVz2EtiJ-149" edge="1">
                    <mxGeometry width="160" relative="1" as="geometry">
                        <mxPoint x="-350" y="85" as="sourcePoint"/>
                        <mxPoint x="-190" y="85" as="targetPoint"/>
                    </mxGeometry>
                </mxCell>
                <mxCell id="Lbqkt2lzDJ4rxtl4HgO9-1" value="Implement" style="text;html=1;align=center;verticalAlign=middle;resizable=0;points=[];;labelBackgroundColor=#ffffff;" parent="pLuQ7xj04wKehVz2EtiJ-153" vertex="1" connectable="0">
                    <mxGeometry x="-0.0087" y="1" relative="1" as="geometry">
                        <mxPoint x="0.94" y="-26.64" as="offset"/>
                    </mxGeometry>
                </mxCell>
                <mxCell id="pLuQ7xj04wKehVz2EtiJ-154" value="" style="endArrow=block;dashed=1;endFill=0;endSize=12;html=1;exitX=1;exitY=0.25;exitDx=0;exitDy=0;entryX=-0.004;entryY=-0.081;entryDx=0;entryDy=0;entryPerimeter=0;" parent="1" source="fEL-3-x19ATJo7vxv6HR-24" target="fXRlClugTOTBc5S8y01M-6" edge="1">
                    <mxGeometry width="160" relative="1" as="geometry">
                        <mxPoint x="-223.71000000000004" y="-362.5" as="sourcePoint"/>
                        <mxPoint x="-150" y="-365" as="targetPoint"/>
                    </mxGeometry>
                </mxCell>
                <mxCell id="Lbqkt2lzDJ4rxtl4HgO9-2" value="Implement" style="text;html=1;align=center;verticalAlign=middle;resizable=0;points=[];;labelBackgroundColor=#ffffff;" parent="pLuQ7xj04wKehVz2EtiJ-154" vertex="1" connectable="0">
                    <mxGeometry x="0.4773" y="2" relative="1" as="geometry">
                        <mxPoint x="-41.89" as="offset"/>
                    </mxGeometry>
                </mxCell>
                <mxCell id="pLuQ7xj04wKehVz2EtiJ-155" value="Use" style="endArrow=open;endSize=12;dashed=1;html=1;exitX=1;exitY=0.5;exitDx=0;exitDy=0;entryX=1;entryY=0.25;entryDx=0;entryDy=0;rounded=1;" parent="1" source="fEL-3-x19ATJo7vxv6HR-65" target="pLuQ7xj04wKehVz2EtiJ-148" edge="1">
                    <mxGeometry x="0.8815" width="160" relative="1" as="geometry">
                        <mxPoint x="-240" y="75" as="sourcePoint"/>
                        <mxPoint x="-80" y="75" as="targetPoint"/>
                        <Array as="points">
                            <mxPoint x="200" y="-45"/>
                            <mxPoint x="200" y="-410"/>
                        </Array>
                        <mxPoint as="offset"/>
                    </mxGeometry>
                </mxCell>
                <mxCell id="pLuQ7xj04wKehVz2EtiJ-156" value="Use" style="endArrow=open;endSize=12;dashed=1;html=1;exitX=1;exitY=0.25;exitDx=0;exitDy=0;" parent="1" source="fEL-3-x19ATJo7vxv6HR-24" target="pLuQ7xj04wKehVz2EtiJ-148" edge="1">
                    <mxGeometry x="0.5481" y="20" width="160" relative="1" as="geometry">
                        <mxPoint x="-210" y="-275" as="sourcePoint"/>
                        <mxPoint x="-50" y="-275" as="targetPoint"/>
                        <Array as="points">
                            <mxPoint x="-80" y="-275"/>
                        </Array>
                        <mxPoint x="20" y="-20" as="offset"/>
                    </mxGeometry>
                </mxCell>
                <mxCell id="pLuQ7xj04wKehVz2EtiJ-157" value="Use" style="endArrow=open;endSize=12;dashed=1;html=1;exitX=1;exitY=0.25;exitDx=0;exitDy=0;" parent="1" source="fEL-3-x19ATJo7vxv6HR-65" edge="1">
                    <mxGeometry width="160" relative="1" as="geometry">
                        <mxPoint x="-268.71000000000004" y="-220" as="sourcePoint"/>
                        <mxPoint x="100" y="-190" as="targetPoint"/>
                        <Array as="points">
                            <mxPoint x="1" y="-80"/>
                            <mxPoint x="110" y="-180"/>
                        </Array>
                    </mxGeometry>
                </mxCell>
                <mxCell id="pLuQ7xj04wKehVz2EtiJ-158" value="&lt;p style=&quot;margin: 0px ; margin-top: 4px ; text-align: center&quot;&gt;Â«interfaceÂ»&lt;br&gt;&lt;b&gt;ISensor&lt;/b&gt;&lt;/p&gt;&lt;hr size=&quot;1&quot;&gt;&lt;p style=&quot;margin: 0px ; margin-left: 4px&quot;&gt;&lt;br&gt;&lt;/p&gt;&lt;hr size=&quot;1&quot;&gt;&lt;p style=&quot;margin: 0px ; margin-left: 4px&quot;&gt;+ getInput(int i): MSG_BLOCK&lt;br&gt;&lt;/p&gt;" style="verticalAlign=top;align=left;overflow=fill;fontSize=12;fontFamily=Helvetica;html=1;" parent="1" vertex="1">
                    <mxGeometry x="-431.21" y="-605" width="190" height="113" as="geometry"/>
                </mxCell>
                <mxCell id="pLuQ7xj04wKehVz2EtiJ-159" value="&lt;p style=&quot;margin: 0px ; margin-top: 4px ; text-align: center&quot;&gt;Â«interfaceÂ»&lt;br&gt;&lt;b&gt;IDisplay&lt;/b&gt;&lt;/p&gt;&lt;hr size=&quot;1&quot;&gt;&lt;p style=&quot;margin: 0px ; margin-left: 4px&quot;&gt;&lt;br&gt;&lt;/p&gt;&lt;hr size=&quot;1&quot;&gt;&lt;p style=&quot;margin: 0px ; margin-left: 4px&quot;&gt;+ messageDisplay(MSG_BLOCK mBlock)&lt;br&gt;&lt;/p&gt;&lt;p style=&quot;margin: 0px ; margin-left: 4px&quot;&gt;+ print(Integer producedCount, Integer consumedCount)&lt;br&gt;&lt;/p&gt;" style="verticalAlign=top;align=left;overflow=fill;fontSize=12;fontFamily=Helvetica;html=1;" parent="1" vertex="1">
                    <mxGeometry x="-30" y="180" width="310" height="120" as="geometry"/>
                </mxCell>
                <mxCell id="pLuQ7xj04wKehVz2EtiJ-160" value="Use" style="endArrow=open;endSize=12;dashed=1;html=1;exitX=1;exitY=0.75;exitDx=0;exitDy=0;entryX=0;entryY=0.5;entryDx=0;entryDy=0;" parent="1" source="fEL-3-x19ATJo7vxv6HR-65" target="pLuQ7xj04wKehVz2EtiJ-159" edge="1">
                    <mxGeometry x="0.43" y="10" width="160" relative="1" as="geometry">
                        <mxPoint x="-268.71000000000004" y="-25" as="sourcePoint"/>
                        <mxPoint x="-68.7199999999998" y="-119.67999999999984" as="targetPoint"/>
                        <Array as="points">
                            <mxPoint x="-220" y="160"/>
                        </Array>
                        <mxPoint as="offset"/>
                    </mxGeometry>
                </mxCell>
                <mxCell id="pLuQ7xj04wKehVz2EtiJ-161" value="Use" style="endArrow=open;endSize=12;dashed=1;html=1;exitX=0.5;exitY=0;exitDx=0;exitDy=0;entryX=0.5;entryY=1;entryDx=0;entryDy=0;" parent="1" source="fEL-3-x19ATJo7vxv6HR-54" target="pLuQ7xj04wKehVz2EtiJ-158" edge="1">
                    <mxGeometry width="160" relative="1" as="geometry">
                        <mxPoint x="-268.71000000000004" y="-220" as="sourcePoint"/>
                        <mxPoint x="-120" y="-305" as="targetPoint"/>
                    </mxGeometry>
                </mxCell>
                <mxCell id="nDVz6QAk0CL7eOiTC_jA-1" value="&lt;p style=&quot;margin: 0px ; margin-top: 4px ; text-align: center&quot;&gt;&lt;b&gt;Msg&lt;/b&gt;&lt;/p&gt;&lt;hr size=&quot;1&quot;&gt;&lt;p style=&quot;margin: 0px ; margin-left: 4px&quot;&gt;&lt;br&gt;&lt;/p&gt;&lt;hr size=&quot;1&quot;&gt;&lt;p style=&quot;margin: 0px ; margin-left: 4px&quot;&gt;&lt;span&gt;- messageAdd()&lt;/span&gt;&lt;/p&gt;&lt;p style=&quot;margin: 0px ; margin-left: 4px&quot;&gt;&lt;span&gt;- messageCheck()&lt;/span&gt;&lt;br&gt;&lt;/p&gt;" style="verticalAlign=top;align=left;overflow=fill;fontSize=12;fontFamily=Helvetica;html=1;shadow=0;" parent="1" vertex="1">
                    <mxGeometry x="-159.99999999999997" y="-170" width="120" height="105" as="geometry"/>
                </mxCell>
                <mxCell id="sWfBH13LbjcDb2dTJ5xe-1" value="Exigence 1" style="rounded=0;whiteSpace=wrap;html=1;fillColor=#f8cecc;strokeColor=#b85450;" parent="1" vertex="1">
                    <mxGeometry x="-1169" y="-960" width="120" height="60" as="geometry"/>
                </mxCell>
                <mxCell id="sWfBH13LbjcDb2dTJ5xe-2" value="" style="endArrow=classic;html=1;exitX=0.5;exitY=1;exitDx=0;exitDy=0;dashed=1;dashPattern=1 1;fillColor=#f8cecc;strokeColor=#b85450;" parent="1" source="sWfBH13LbjcDb2dTJ5xe-1" target="pLuQ7xj04wKehVz2EtiJ-45" edge="1">
                    <mxGeometry width="50" height="50" relative="1" as="geometry">
                        <mxPoint x="-1580" y="-265" as="sourcePoint"/>
                        <mxPoint x="-1510" y="-315" as="targetPoint"/>
                    </mxGeometry>
                </mxCell>
                <mxCell id="sWfBH13LbjcDb2dTJ5xe-3" value="&quot;allocate&quot;" style="text;html=1;align=center;verticalAlign=middle;resizable=0;points=[];;labelBackgroundColor=#ffffff;" parent="sWfBH13LbjcDb2dTJ5xe-2" vertex="1" connectable="0">
                    <mxGeometry x="-0.3881" relative="1" as="geometry">
                        <mxPoint x="3.4" y="-16.08" as="offset"/>
                    </mxGeometry>
                </mxCell>
                <mxCell id="qqK9oZsPi8CkOc17uRQG-1" value="producer1:pthread_t" style="shape=umlLifeline;perimeter=lifelinePerimeter;whiteSpace=wrap;html=1;container=1;collapsible=0;recursiveResize=0;outlineConnect=0;" parent="1" vertex="1">
                    <mxGeometry x="-571.21" y="-950.0000000000002" width="140" height="300" as="geometry"/>
                </mxCell>
                <mxCell id="qqK9oZsPi8CkOc17uRQG-8" value="" style="html=1;points=[];perimeter=orthogonalPerimeter;" parent="qqK9oZsPi8CkOc17uRQG-1" vertex="1">
                    <mxGeometry x="65" y="70" width="10" height="80" as="geometry"/>
                </mxCell>
                <mxCell id="qqK9oZsPi8CkOc17uRQG-2" value="producer2:pthread_t" style="shape=umlLifeline;perimeter=lifelinePerimeter;whiteSpace=wrap;html=1;container=1;collapsible=0;recursiveResize=0;outlineConnect=0;" parent="1" vertex="1">
                    <mxGeometry x="-410" y="-950.0000000000002" width="120" height="300" as="geometry"/>
                </mxCell>
                <mxCell id="qqK9oZsPi8CkOc17uRQG-3" value="consumer:pthread_t" style="shape=umlLifeline;perimeter=lifelinePerimeter;whiteSpace=wrap;html=1;container=1;collapsible=0;recursiveResize=0;outlineConnect=0;" parent="1" vertex="1">
                    <mxGeometry x="120" y="-950" width="150" height="300" as="geometry"/>
                </mxCell>
                <mxCell id="qqK9oZsPi8CkOc17uRQG-24" value="" style="html=1;points=[];perimeter=orthogonalPerimeter;" parent="qqK9oZsPi8CkOc17uRQG-3" vertex="1">
                    <mxGeometry x="70" y="76" width="10" height="20" as="geometry"/>
                </mxCell>
                <mxCell id="qqK9oZsPi8CkOc17uRQG-25" value="" style="html=1;points=[];perimeter=orthogonalPerimeter;" parent="qqK9oZsPi8CkOc17uRQG-3" vertex="1">
                    <mxGeometry x="70" y="184" width="10" height="40" as="geometry"/>
                </mxCell>
                <mxCell id="qqK9oZsPi8CkOc17uRQG-4" value="m1: pthread_mutex_t" style="shape=umlLifeline;perimeter=lifelinePerimeter;whiteSpace=wrap;html=1;container=1;collapsible=0;recursiveResize=0;outlineConnect=0;" parent="1" vertex="1">
                    <mxGeometry x="-278.71" y="-950.0000000000002" width="174" height="300" as="geometry"/>
                </mxCell>
                <mxCell id="qqK9oZsPi8CkOc17uRQG-5" value="" style="html=1;points=[];perimeter=orthogonalPerimeter;" parent="qqK9oZsPi8CkOc17uRQG-4" vertex="1">
                    <mxGeometry x="82" y="70" width="10" height="90" as="geometry"/>
                </mxCell>
                <mxCell id="qqK9oZsPi8CkOc17uRQG-6" value="pthread_mutex_lock()" style="html=1;verticalAlign=bottom;endArrow=block;entryX=0;entryY=0;exitX=0.807;exitY=-0.002;exitDx=0;exitDy=0;exitPerimeter=0;" parent="1" source="qqK9oZsPi8CkOc17uRQG-8" target="qqK9oZsPi8CkOc17uRQG-5" edge="1">
                    <mxGeometry relative="1" as="geometry">
                        <mxPoint x="-490" y="-875" as="sourcePoint"/>
                    </mxGeometry>
                </mxCell>
                <mxCell id="qqK9oZsPi8CkOc17uRQG-7" value="return" style="html=1;verticalAlign=bottom;endArrow=open;dashed=1;endSize=8;exitX=-0.129;exitY=0.259;exitDx=0;exitDy=0;exitPerimeter=0;" parent="1" source="qqK9oZsPi8CkOc17uRQG-5" target="qqK9oZsPi8CkOc17uRQG-8" edge="1">
                    <mxGeometry relative="1" as="geometry">
                        <mxPoint x="-500" y="-805" as="targetPoint"/>
                        <mxPoint x="-198" y="-799" as="sourcePoint"/>
                    </mxGeometry>
                </mxCell>
                <mxCell id="qqK9oZsPi8CkOc17uRQG-20" value="produce()" style="text;html=1;align=right;" parent="1" vertex="1">
                    <mxGeometry x="-590" y="-855" width="80" height="30" as="geometry"/>
                </mxCell>
                <mxCell id="qqK9oZsPi8CkOc17uRQG-26" value="" style="endArrow=classic;html=1;exitX=0.5;exitY=1;exitDx=0;exitDy=0;dashed=1;dashPattern=1 1;entryX=0.5;entryY=0;entryDx=0;entryDy=0;fillColor=#f8cecc;strokeColor=#b85450;" parent="1" source="sWfBH13LbjcDb2dTJ5xe-1" target="pLuQ7xj04wKehVz2EtiJ-41" edge="1">
                    <mxGeometry width="50" height="50" relative="1" as="geometry">
                        <mxPoint x="-1339.9999999999998" y="-835" as="sourcePoint"/>
                        <mxPoint x="-1351.0526315789475" y="-685" as="targetPoint"/>
                    </mxGeometry>
                </mxCell>
                <mxCell id="qqK9oZsPi8CkOc17uRQG-27" value="&quot;allocate&quot;" style="text;html=1;align=center;verticalAlign=middle;resizable=0;points=[];;labelBackgroundColor=#ffffff;" parent="qqK9oZsPi8CkOc17uRQG-26" vertex="1" connectable="0">
                    <mxGeometry x="-0.3881" relative="1" as="geometry">
                        <mxPoint x="3.4" y="-16.08" as="offset"/>
                    </mxGeometry>
                </mxCell>
                <mxCell id="qqK9oZsPi8CkOc17uRQG-28" value="" style="endArrow=classic;html=1;dashed=1;dashPattern=1 1;entryX=0.5;entryY=0;entryDx=0;entryDy=0;exitX=0.5;exitY=1;exitDx=0;exitDy=0;fillColor=#f8cecc;strokeColor=#b85450;" parent="1" source="sWfBH13LbjcDb2dTJ5xe-1" target="pLuQ7xj04wKehVz2EtiJ-43" edge="1">
                    <mxGeometry width="50" height="50" relative="1" as="geometry">
                        <mxPoint x="-1350" y="-845" as="sourcePoint"/>
                        <mxPoint x="-1104" y="-685" as="targetPoint"/>
                    </mxGeometry>
                </mxCell>
                <mxCell id="qqK9oZsPi8CkOc17uRQG-29" value="&quot;allocate&quot;" style="text;html=1;align=center;verticalAlign=middle;resizable=0;points=[];;labelBackgroundColor=#ffffff;" parent="qqK9oZsPi8CkOc17uRQG-28" vertex="1" connectable="0">
                    <mxGeometry x="-0.3881" relative="1" as="geometry">
                        <mxPoint x="3.4" y="-16.08" as="offset"/>
                    </mxGeometry>
                </mxCell>
                <mxCell id="qqK9oZsPi8CkOc17uRQG-30" value="Exigence 2" style="rounded=0;whiteSpace=wrap;html=1;fillColor=#fff2cc;strokeColor=#d6b656;" parent="1" vertex="1">
                    <mxGeometry x="-1460" y="-960" width="120" height="60" as="geometry"/>
                </mxCell>
                <mxCell id="qqK9oZsPi8CkOc17uRQG-31" value="" style="endArrow=classic;html=1;exitX=0.5;exitY=1;exitDx=0;exitDy=0;dashed=1;dashPattern=1 1;entryX=0.25;entryY=0;entryDx=0;entryDy=0;fillColor=#fff2cc;strokeColor=#d6b656;" parent="1" source="qqK9oZsPi8CkOc17uRQG-30" target="pLuQ7xj04wKehVz2EtiJ-45" edge="1">
                    <mxGeometry width="50" height="50" relative="1" as="geometry">
                        <mxPoint x="-1080" y="-855" as="sourcePoint"/>
                        <mxPoint x="-1301.8095238095239" y="-685" as="targetPoint"/>
                    </mxGeometry>
                </mxCell>
                <mxCell id="qqK9oZsPi8CkOc17uRQG-32" value="&quot;allocate&quot;" style="text;html=1;align=center;verticalAlign=middle;resizable=0;points=[];;labelBackgroundColor=#ffffff;" parent="qqK9oZsPi8CkOc17uRQG-31" vertex="1" connectable="0">
                    <mxGeometry x="-0.3881" relative="1" as="geometry">
                        <mxPoint x="3.4" y="-16.08" as="offset"/>
                    </mxGeometry>
                </mxCell>
                <mxCell id="qqK9oZsPi8CkOc17uRQG-33" value="acquisitionManager" style="shape=umlLifeline;perimeter=lifelinePerimeter;whiteSpace=wrap;html=1;container=1;collapsible=0;recursiveResize=0;outlineConnect=0;" parent="1" vertex="1">
                    <mxGeometry x="-80" y="-950" width="150" height="300" as="geometry"/>
                </mxCell>
                <mxCell id="qqK9oZsPi8CkOc17uRQG-35" value="" style="html=1;points=[];perimeter=orthogonalPerimeter;" parent="qqK9oZsPi8CkOc17uRQG-33" vertex="1">
                    <mxGeometry x="70" y="160" width="10" height="24" as="geometry"/>
                </mxCell>
                <mxCell id="qqK9oZsPi8CkOc17uRQG-40" value="pthread_mutex_lock()" style="edgeStyle=orthogonalEdgeStyle;rounded=0;orthogonalLoop=1;jettySize=auto;html=1;exitX=0.1;exitY=0.867;exitDx=0;exitDy=0;exitPerimeter=0;" parent="1" source="qqK9oZsPi8CkOc17uRQG-36" edge="1">
                    <mxGeometry x="0.0225" y="-13" relative="1" as="geometry">
                        <mxPoint x="-187" y="-842" as="targetPoint"/>
                        <Array as="points">
                            <mxPoint x="-100" y="-842"/>
                            <mxPoint x="-100" y="-842"/>
                        </Array>
                        <mxPoint as="offset"/>
                    </mxGeometry>
                </mxCell>
                <mxCell id="qqK9oZsPi8CkOc17uRQG-36" value="" style="html=1;points=[];perimeter=orthogonalPerimeter;" parent="1" vertex="1">
                    <mxGeometry x="-10" y="-855" width="10" height="15" as="geometry"/>
                </mxCell>
                <mxCell id="qqK9oZsPi8CkOc17uRQG-37" value="" style="edgeStyle=orthogonalEdgeStyle;rounded=0;orthogonalLoop=1;jettySize=auto;html=1;" parent="1" edge="1">
                    <mxGeometry relative="1" as="geometry">
                        <mxPoint x="191" y="-854" as="sourcePoint"/>
                        <mxPoint x="-1" y="-854" as="targetPoint"/>
                    </mxGeometry>
                </mxCell>
                <mxCell id="qqK9oZsPi8CkOc17uRQG-38" value="getMessage()" style="text;html=1;align=center;verticalAlign=middle;resizable=0;points=[];;labelBackgroundColor=#ffffff;" parent="qqK9oZsPi8CkOc17uRQG-37" vertex="1" connectable="0">
                    <mxGeometry x="0.4947" y="-2" relative="1" as="geometry">
                        <mxPoint x="31.67" y="-13" as="offset"/>
                    </mxGeometry>
                </mxCell>
                <mxCell id="qqK9oZsPi8CkOc17uRQG-41" value="return" style="html=1;verticalAlign=bottom;endArrow=open;dashed=1;endSize=8;entryX=-0.117;entryY=-0.012;entryDx=0;entryDy=0;entryPerimeter=0;exitX=0.994;exitY=0.993;exitDx=0;exitDy=0;exitPerimeter=0;" parent="1" source="qqK9oZsPi8CkOc17uRQG-5" target="qqK9oZsPi8CkOc17uRQG-35" edge="1">
                    <mxGeometry relative="1" as="geometry">
                        <mxPoint x="-490" y="-789" as="targetPoint"/>
                        <mxPoint x="-188" y="-789" as="sourcePoint"/>
                    </mxGeometry>
                </mxCell>
                <mxCell id="qqK9oZsPi8CkOc17uRQG-42" value="return" style="html=1;verticalAlign=bottom;endArrow=open;dashed=1;endSize=8;entryX=0.01;entryY=0.023;entryDx=0;entryDy=0;entryPerimeter=0;exitX=1.183;exitY=0.959;exitDx=0;exitDy=0;exitPerimeter=0;" parent="1" source="qqK9oZsPi8CkOc17uRQG-35" target="qqK9oZsPi8CkOc17uRQG-25" edge="1">
                    <mxGeometry relative="1" as="geometry">
                        <mxPoint x="-1.1700000000000728" y="-710.48" as="targetPoint"/>
                        <mxPoint x="-177" y="-712.24" as="sourcePoint"/>
                    </mxGeometry>
                </mxCell>
                <mxCell id="qqK9oZsPi8CkOc17uRQG-43" value="sum()" style="text;html=1;" parent="1" vertex="1">
                    <mxGeometry x="200" y="-882" width="80" height="30" as="geometry"/>
                </mxCell>
                <mxCell id="5SSwzvjwG53dtj9x0kSO-1" value="sum()" style="text;html=1;" parent="1" vertex="1">
                    <mxGeometry x="200" y="-775" width="80" height="30" as="geometry"/>
                </mxCell>
                <mxCell id="oBnAeq9iyVOHKzDOZlAw-1" value="pthread_mutex_unlock()" style="html=1;verticalAlign=bottom;endArrow=block;" parent="1" source="qqK9oZsPi8CkOc17uRQG-8" edge="1">
                    <mxGeometry relative="1" as="geometry">
                        <mxPoint x="-480" y="-825" as="sourcePoint"/>
                        <mxPoint x="-197" y="-825" as="targetPoint"/>
                    </mxGeometry>
                </mxCell>
                <mxCell id="oBnAeq9iyVOHKzDOZlAw-2" value="return" style="html=1;verticalAlign=bottom;endArrow=open;dashed=1;endSize=8;exitX=-0.229;exitY=0.844;exitDx=0;exitDy=0;exitPerimeter=0;" parent="1" source="qqK9oZsPi8CkOc17uRQG-5" target="qqK9oZsPi8CkOc17uRQG-8" edge="1">
                    <mxGeometry relative="1" as="geometry">
                        <mxPoint x="-497" y="-807" as="targetPoint"/>
                        <mxPoint x="-200.5" y="-805.0000000000002" as="sourcePoint"/>
                    </mxGeometry>
                </mxCell>
                <mxCell id="dWmCNEkzgsVjjiaqjVMm-47" value="" style="group" parent="1" vertex="1" connectable="0">
                    <mxGeometry x="-1554" y="150" width="759.9990909090908" height="492.8571428571431" as="geometry"/>
                </mxCell>
                <mxCell id="dWmCNEkzgsVjjiaqjVMm-1" value="" style="endArrow=none;html=1;" parent="dWmCNEkzgsVjjiaqjVMm-47" source="dWmCNEkzgsVjjiaqjVMm-38" edge="1">
                    <mxGeometry width="50" height="50" relative="1" as="geometry">
                        <mxPoint x="69.25" y="57.85714285714288" as="sourcePoint"/>
                        <mxPoint x="834" y="58" as="targetPoint"/>
                    </mxGeometry>
                </mxCell>
                <mxCell id="dWmCNEkzgsVjjiaqjVMm-2" value="" style="endArrow=none;html=1;" parent="dWmCNEkzgsVjjiaqjVMm-47" edge="1">
                    <mxGeometry width="50" height="50" relative="1" as="geometry">
                        <mxPoint x="69.25" y="135.00000000000003" as="sourcePoint"/>
                        <mxPoint x="834" y="135" as="targetPoint"/>
                    </mxGeometry>
                </mxCell>
                <mxCell id="dWmCNEkzgsVjjiaqjVMm-3" value="" style="endArrow=none;html=1;" parent="dWmCNEkzgsVjjiaqjVMm-47" edge="1">
                    <mxGeometry width="50" height="50" relative="1" as="geometry">
                        <mxPoint x="69.25" y="212.1428571428572" as="sourcePoint"/>
                        <mxPoint x="834" y="210" as="targetPoint"/>
                    </mxGeometry>
                </mxCell>
                <mxCell id="dWmCNEkzgsVjjiaqjVMm-4" value="" style="endArrow=none;html=1;" parent="dWmCNEkzgsVjjiaqjVMm-47" edge="1">
                    <mxGeometry width="50" height="50" relative="1" as="geometry">
                        <mxPoint x="94.43181818181826" y="77.14285714285715" as="sourcePoint"/>
                        <mxPoint x="94.43181818181826" y="38.57142857142858" as="targetPoint"/>
                    </mxGeometry>
                </mxCell>
                <mxCell id="dWmCNEkzgsVjjiaqjVMm-5" value="" style="endArrow=none;html=1;" parent="dWmCNEkzgsVjjiaqjVMm-47" edge="1">
                    <mxGeometry width="50" height="50" relative="1" as="geometry">
                        <mxPoint x="396.6136363636365" y="77.14285714285715" as="sourcePoint"/>
                        <mxPoint x="396.6136363636365" y="38.57142857142858" as="targetPoint"/>
                    </mxGeometry>
                </mxCell>
                <mxCell id="dWmCNEkzgsVjjiaqjVMm-6" value="" style="endArrow=none;html=1;" parent="dWmCNEkzgsVjjiaqjVMm-47" edge="1">
                    <mxGeometry width="50" height="50" relative="1" as="geometry">
                        <mxPoint x="295.57159090909096" y="77.14285714285715" as="sourcePoint"/>
                        <mxPoint x="295.57159090909096" y="38.57142857142858" as="targetPoint"/>
                    </mxGeometry>
                </mxCell>
                <mxCell id="dWmCNEkzgsVjjiaqjVMm-7" value="" style="endArrow=none;html=1;" parent="dWmCNEkzgsVjjiaqjVMm-47" edge="1">
                    <mxGeometry width="50" height="50" relative="1" as="geometry">
                        <mxPoint x="195.15909090909085" y="77.14285714285715" as="sourcePoint"/>
                        <mxPoint x="195.15909090909085" y="38.57142857142858" as="targetPoint"/>
                    </mxGeometry>
                </mxCell>
                <mxCell id="dWmCNEkzgsVjjiaqjVMm-8" value="" style="endArrow=none;html=1;startArrow=none;" parent="dWmCNEkzgsVjjiaqjVMm-47" source="Yxc4LO8ZKotI-C8fvzfl-169" edge="1">
                    <mxGeometry width="50" height="50" relative="1" as="geometry">
                        <mxPoint x="69.25" y="6.428571428571434" as="sourcePoint"/>
                        <mxPoint x="764" y="6" as="targetPoint"/>
                    </mxGeometry>
                </mxCell>
                <mxCell id="dWmCNEkzgsVjjiaqjVMm-9" value="" style="ellipse;whiteSpace=wrap;html=1;fillColor=#000000;" parent="dWmCNEkzgsVjjiaqjVMm-47" vertex="1">
                    <mxGeometry x="88.13636363636367" width="12.590909090909092" height="12.857142857142861" as="geometry"/>
                </mxCell>
                <mxCell id="dWmCNEkzgsVjjiaqjVMm-10" value="" style="endArrow=none;html=1;" parent="dWmCNEkzgsVjjiaqjVMm-47" target="dWmCNEkzgsVjjiaqjVMm-9" edge="1">
                    <mxGeometry width="50" height="50" relative="1" as="geometry">
                        <mxPoint x="69.25" y="6.428571428571434" as="sourcePoint"/>
                        <mxPoint x="554" y="6.428571428571434" as="targetPoint"/>
                    </mxGeometry>
                </mxCell>
                <mxCell id="dWmCNEkzgsVjjiaqjVMm-14" value="" style="ellipse;whiteSpace=wrap;html=1;fillColor=#000000;" parent="dWmCNEkzgsVjjiaqjVMm-47" vertex="1">
                    <mxGeometry x="188.86363636363632" width="12.590909090909092" height="12.857142857142861" as="geometry"/>
                </mxCell>
                <mxCell id="dWmCNEkzgsVjjiaqjVMm-15" value="" style="endArrow=none;html=1;" parent="dWmCNEkzgsVjjiaqjVMm-47" source="dWmCNEkzgsVjjiaqjVMm-9" target="dWmCNEkzgsVjjiaqjVMm-14" edge="1">
                    <mxGeometry width="50" height="50" relative="1" as="geometry">
                        <mxPoint x="100.72727272727263" y="6.428571428571434" as="sourcePoint"/>
                        <mxPoint x="554" y="6.428571428571434" as="targetPoint"/>
                    </mxGeometry>
                </mxCell>
                <mxCell id="dWmCNEkzgsVjjiaqjVMm-16" value="" style="ellipse;whiteSpace=wrap;html=1;fillColor=#000000;" parent="dWmCNEkzgsVjjiaqjVMm-47" vertex="1">
                    <mxGeometry x="289.59090909090907" width="12.590909090909092" height="12.857142857142861" as="geometry"/>
                </mxCell>
                <mxCell id="dWmCNEkzgsVjjiaqjVMm-17" value="" style="endArrow=none;html=1;" parent="dWmCNEkzgsVjjiaqjVMm-47" source="dWmCNEkzgsVjjiaqjVMm-14" target="dWmCNEkzgsVjjiaqjVMm-16" edge="1">
                    <mxGeometry width="50" height="50" relative="1" as="geometry">
                        <mxPoint x="201.45454545454547" y="6.428571428571434" as="sourcePoint"/>
                        <mxPoint x="554" y="6.428571428571434" as="targetPoint"/>
                    </mxGeometry>
                </mxCell>
                <mxCell id="dWmCNEkzgsVjjiaqjVMm-18" value="" style="ellipse;whiteSpace=wrap;html=1;fillColor=#000000;" parent="dWmCNEkzgsVjjiaqjVMm-47" vertex="1">
                    <mxGeometry x="390.3181818181817" width="12.590909090909092" height="12.857142857142861" as="geometry"/>
                </mxCell>
                <mxCell id="dWmCNEkzgsVjjiaqjVMm-19" value="" style="endArrow=none;html=1;" parent="dWmCNEkzgsVjjiaqjVMm-47" source="dWmCNEkzgsVjjiaqjVMm-16" target="dWmCNEkzgsVjjiaqjVMm-18" edge="1">
                    <mxGeometry width="50" height="50" relative="1" as="geometry">
                        <mxPoint x="302.1818181818183" y="6.428571428571434" as="sourcePoint"/>
                        <mxPoint x="554" y="6.428571428571434" as="targetPoint"/>
                    </mxGeometry>
                </mxCell>
                <mxCell id="dWmCNEkzgsVjjiaqjVMm-20" value="Clock [ms]" style="text;html=1;strokeColor=none;fillColor=none;align=center;verticalAlign=middle;whiteSpace=wrap;rounded=0;" parent="dWmCNEkzgsVjjiaqjVMm-47" vertex="1">
                    <mxGeometry width="50.36363636363637" height="12.857142857142861" as="geometry"/>
                </mxCell>
                <mxCell id="dWmCNEkzgsVjjiaqjVMm-21" value="producer2" style="text;html=1;strokeColor=none;fillColor=none;align=center;verticalAlign=middle;whiteSpace=wrap;rounded=0;" parent="dWmCNEkzgsVjjiaqjVMm-47" vertex="1">
                    <mxGeometry y="128.57142857142858" width="50.36363636363637" height="12.857142857142861" as="geometry"/>
                </mxCell>
                <mxCell id="dWmCNEkzgsVjjiaqjVMm-25" value="producer3" style="text;html=1;strokeColor=none;fillColor=none;align=center;verticalAlign=middle;whiteSpace=wrap;rounded=0;" parent="dWmCNEkzgsVjjiaqjVMm-47" vertex="1">
                    <mxGeometry y="205.7142857142858" width="50.36363636363637" height="12.857142857142861" as="geometry"/>
                </mxCell>
                <mxCell id="dWmCNEkzgsVjjiaqjVMm-28" value="producers1" style="text;html=1;strokeColor=none;fillColor=none;align=center;verticalAlign=middle;whiteSpace=wrap;rounded=0;" parent="dWmCNEkzgsVjjiaqjVMm-47" vertex="1">
                    <mxGeometry y="51.42857142857145" width="50.36363636363637" height="12.857142857142861" as="geometry"/>
                </mxCell>
                <mxCell id="dWmCNEkzgsVjjiaqjVMm-29" value="" style="endArrow=none;html=1;" parent="dWmCNEkzgsVjjiaqjVMm-47" edge="1">
                    <mxGeometry width="50" height="50" relative="1" as="geometry">
                        <mxPoint x="69.25" y="289.2857142857144" as="sourcePoint"/>
                        <mxPoint x="834" y="289" as="targetPoint"/>
                    </mxGeometry>
                </mxCell>
                <mxCell id="dWmCNEkzgsVjjiaqjVMm-30" value="producer4" style="text;html=1;strokeColor=none;fillColor=none;align=center;verticalAlign=middle;whiteSpace=wrap;rounded=0;" parent="dWmCNEkzgsVjjiaqjVMm-47" vertex="1">
                    <mxGeometry y="282.857142857143" width="50.36363636363637" height="12.857142857142861" as="geometry"/>
                </mxCell>
                <mxCell id="dWmCNEkzgsVjjiaqjVMm-31" value="" style="endArrow=none;html=1;" parent="dWmCNEkzgsVjjiaqjVMm-47" edge="1">
                    <mxGeometry width="50" height="50" relative="1" as="geometry">
                        <mxPoint x="69.25" y="366.4285714285716" as="sourcePoint"/>
                        <mxPoint x="844" y="366" as="targetPoint"/>
                    </mxGeometry>
                </mxCell>
                <mxCell id="dWmCNEkzgsVjjiaqjVMm-32" value="consumer" style="text;html=1;strokeColor=none;fillColor=none;align=center;verticalAlign=middle;whiteSpace=wrap;rounded=0;" parent="dWmCNEkzgsVjjiaqjVMm-47" vertex="1">
                    <mxGeometry y="360.00000000000017" width="50.36363636363637" height="12.857142857142861" as="geometry"/>
                </mxCell>
                <mxCell id="dWmCNEkzgsVjjiaqjVMm-33" value="" style="endArrow=none;html=1;" parent="dWmCNEkzgsVjjiaqjVMm-47" edge="1">
                    <mxGeometry width="50" height="50" relative="1" as="geometry">
                        <mxPoint x="69.24999999999983" y="443.5714285714287" as="sourcePoint"/>
                        <mxPoint x="844" y="444" as="targetPoint"/>
                    </mxGeometry>
                </mxCell>
                <mxCell id="dWmCNEkzgsVjjiaqjVMm-34" value="displayThread" style="text;html=1;strokeColor=none;fillColor=none;align=center;verticalAlign=middle;whiteSpace=wrap;rounded=0;" parent="dWmCNEkzgsVjjiaqjVMm-47" vertex="1">
                    <mxGeometry y="437.1428571428572" width="50.36363636363637" height="12.857142857142861" as="geometry"/>
                </mxCell>
                <mxCell id="dWmCNEkzgsVjjiaqjVMm-35" value="&lt;span&gt;getInput&lt;/span&gt;" style="rounded=0;whiteSpace=wrap;html=1;fillColor=#999999;" parent="dWmCNEkzgsVjjiaqjVMm-47" vertex="1">
                    <mxGeometry x="107.02272727272737" y="48.214285714285744" width="75.54545454545456" height="19.28571428571429" as="geometry"/>
                </mxCell>
                <mxCell id="dWmCNEkzgsVjjiaqjVMm-36" value="" style="endArrow=none;html=1;" parent="dWmCNEkzgsVjjiaqjVMm-47" target="dWmCNEkzgsVjjiaqjVMm-35" edge="1">
                    <mxGeometry width="50" height="50" relative="1" as="geometry">
                        <mxPoint x="69.24999999999983" y="57.85714285714288" as="sourcePoint"/>
                        <mxPoint x="554" y="57.85714285714288" as="targetPoint"/>
                    </mxGeometry>
                </mxCell>
                <mxCell id="dWmCNEkzgsVjjiaqjVMm-38" value="&lt;span&gt;getInput&lt;/span&gt;" style="rounded=0;whiteSpace=wrap;html=1;fillColor=#999999;" parent="dWmCNEkzgsVjjiaqjVMm-47" vertex="1">
                    <mxGeometry x="307.21818181818185" y="48.214285714285744" width="75.54545454545456" height="19.28571428571429" as="geometry"/>
                </mxCell>
                <mxCell id="dWmCNEkzgsVjjiaqjVMm-39" value="" style="endArrow=none;html=1;" parent="dWmCNEkzgsVjjiaqjVMm-47" source="dWmCNEkzgsVjjiaqjVMm-35" target="dWmCNEkzgsVjjiaqjVMm-38" edge="1">
                    <mxGeometry width="50" height="50" relative="1" as="geometry">
                        <mxPoint x="182.56818181818176" y="57.85714285714288" as="sourcePoint"/>
                        <mxPoint x="554" y="57.85714285714288" as="targetPoint"/>
                    </mxGeometry>
                </mxCell>
                <mxCell id="dWmCNEkzgsVjjiaqjVMm-37" value="&lt;span&gt;getInput&lt;/span&gt;" style="rounded=0;whiteSpace=wrap;html=1;fillColor=#999999;" parent="dWmCNEkzgsVjjiaqjVMm-47" vertex="1">
                    <mxGeometry x="209.6386363636364" y="48.214285714285744" width="75.54545454545456" height="19.28571428571429" as="geometry"/>
                </mxCell>
                <mxCell id="dWmCNEkzgsVjjiaqjVMm-44" value="" style="group" parent="dWmCNEkzgsVjjiaqjVMm-47" vertex="1" connectable="0">
                    <mxGeometry x="184.45681818181814" y="83.5714285714286" width="25.181818181818183" height="12.857142857142861" as="geometry"/>
                </mxCell>
                <mxCell id="dWmCNEkzgsVjjiaqjVMm-40" value="" style="rounded=0;whiteSpace=wrap;html=1;fillColor=#FFFFFF;" parent="dWmCNEkzgsVjjiaqjVMm-44" vertex="1">
                    <mxGeometry width="25.181818181818183" height="12.857142857142861" as="geometry"/>
                </mxCell>
                <mxCell id="dWmCNEkzgsVjjiaqjVMm-42" value="" style="endArrow=none;html=1;exitX=0;exitY=0;exitDx=0;exitDy=0;entryX=0.5;entryY=1;entryDx=0;entryDy=0;fillColor=#FFFFFF;" parent="dWmCNEkzgsVjjiaqjVMm-44" source="dWmCNEkzgsVjjiaqjVMm-40" target="dWmCNEkzgsVjjiaqjVMm-40" edge="1">
                    <mxGeometry width="50" height="50" relative="1" as="geometry">
                        <mxPoint x="-49.734090909090895" y="282.857142857143" as="sourcePoint"/>
                        <mxPoint x="-62.324999999999996" y="270.00000000000006" as="targetPoint"/>
                    </mxGeometry>
                </mxCell>
                <mxCell id="Yxc4LO8ZKotI-C8fvzfl-198" value="1" style="edgeLabel;html=1;align=center;verticalAlign=middle;resizable=0;points=[];" vertex="1" connectable="0" parent="dWmCNEkzgsVjjiaqjVMm-42">
                    <mxGeometry x="0.3198" relative="1" as="geometry">
                        <mxPoint as="offset"/>
                    </mxGeometry>
                </mxCell>
                <mxCell id="dWmCNEkzgsVjjiaqjVMm-43" value="" style="endArrow=none;html=1;exitX=1;exitY=0;exitDx=0;exitDy=0;entryX=0.5;entryY=1;entryDx=0;entryDy=0;fillColor=#FFFFFF;" parent="dWmCNEkzgsVjjiaqjVMm-44" source="dWmCNEkzgsVjjiaqjVMm-40" target="dWmCNEkzgsVjjiaqjVMm-40" edge="1">
                    <mxGeometry width="50" height="50" relative="1" as="geometry">
                        <mxPoint x="6.295454545454546" y="6.428571428571431" as="sourcePoint"/>
                        <mxPoint x="18.886363636363633" y="19.28571428571429" as="targetPoint"/>
                    </mxGeometry>
                </mxCell>
                <mxCell id="dWmCNEkzgsVjjiaqjVMm-45" value="" style="endArrow=classic;html=1;fillColor=#FFFFFF;exitX=0.5;exitY=1;exitDx=0;exitDy=0;entryX=0;entryY=0.5;entryDx=0;entryDy=0;" parent="dWmCNEkzgsVjjiaqjVMm-47" source="dWmCNEkzgsVjjiaqjVMm-35" target="dWmCNEkzgsVjjiaqjVMm-40" edge="1">
                    <mxGeometry width="50" height="50" relative="1" as="geometry">
                        <mxPoint x="-3.7772727272727717" y="366.4285714285716" as="sourcePoint"/>
                        <mxPoint x="27.700000000000035" y="334.2857142857144" as="targetPoint"/>
                        <Array as="points">
                            <mxPoint x="153.60909090909092" y="90.00000000000004"/>
                        </Array>
                    </mxGeometry>
                </mxCell>
                <mxCell id="Yxc4LO8ZKotI-C8fvzfl-1" value="" style="endArrow=none;html=1;" edge="1" parent="dWmCNEkzgsVjjiaqjVMm-47">
                    <mxGeometry width="50" height="50" relative="1" as="geometry">
                        <mxPoint x="95.6518181818185" y="154.2828571428571" as="sourcePoint"/>
                        <mxPoint x="95.6518181818185" y="115.71142857142866" as="targetPoint"/>
                    </mxGeometry>
                </mxCell>
                <mxCell id="Yxc4LO8ZKotI-C8fvzfl-2" value="" style="endArrow=none;html=1;" edge="1" parent="dWmCNEkzgsVjjiaqjVMm-47">
                    <mxGeometry width="50" height="50" relative="1" as="geometry">
                        <mxPoint x="397.83363636363674" y="154.2828571428571" as="sourcePoint"/>
                        <mxPoint x="397.83363636363674" y="115.71142857142866" as="targetPoint"/>
                    </mxGeometry>
                </mxCell>
                <mxCell id="Yxc4LO8ZKotI-C8fvzfl-3" value="" style="endArrow=none;html=1;" edge="1" parent="dWmCNEkzgsVjjiaqjVMm-47">
                    <mxGeometry width="50" height="50" relative="1" as="geometry">
                        <mxPoint x="296.79159090909116" y="154.2828571428571" as="sourcePoint"/>
                        <mxPoint x="296.79159090909116" y="115.71142857142866" as="targetPoint"/>
                    </mxGeometry>
                </mxCell>
                <mxCell id="Yxc4LO8ZKotI-C8fvzfl-4" value="" style="endArrow=none;html=1;" edge="1" parent="dWmCNEkzgsVjjiaqjVMm-47">
                    <mxGeometry width="50" height="50" relative="1" as="geometry">
                        <mxPoint x="196.37909090909102" y="154.2828571428571" as="sourcePoint"/>
                        <mxPoint x="196.37909090909102" y="115.71142857142866" as="targetPoint"/>
                    </mxGeometry>
                </mxCell>
                <mxCell id="Yxc4LO8ZKotI-C8fvzfl-5" value="getInput" style="rounded=0;whiteSpace=wrap;html=1;fillColor=#999999;" vertex="1" parent="dWmCNEkzgsVjjiaqjVMm-47">
                    <mxGeometry x="108.2427272727275" y="125.35428571428577" width="75.54545454545456" height="19.28571428571429" as="geometry"/>
                </mxCell>
                <mxCell id="Yxc4LO8ZKotI-C8fvzfl-6" value="&lt;span&gt;getInput&lt;/span&gt;" style="rounded=0;whiteSpace=wrap;html=1;fillColor=#999999;" vertex="1" parent="dWmCNEkzgsVjjiaqjVMm-47">
                    <mxGeometry x="308.4381818181819" y="125.35428571428577" width="75.54545454545456" height="19.28571428571429" as="geometry"/>
                </mxCell>
                <mxCell id="Yxc4LO8ZKotI-C8fvzfl-7" value="&lt;span&gt;getInput&lt;/span&gt;" style="rounded=0;whiteSpace=wrap;html=1;fillColor=#999999;" vertex="1" parent="dWmCNEkzgsVjjiaqjVMm-47">
                    <mxGeometry x="210.85863636363638" y="125.35428571428577" width="75.54545454545456" height="19.28571428571429" as="geometry"/>
                </mxCell>
                <mxCell id="Yxc4LO8ZKotI-C8fvzfl-13" value="" style="group" vertex="1" connectable="0" parent="dWmCNEkzgsVjjiaqjVMm-47">
                    <mxGeometry x="204.28681818181803" y="160.7114285714286" width="25.181818181818183" height="12.857142857142861" as="geometry"/>
                </mxCell>
                <mxCell id="Yxc4LO8ZKotI-C8fvzfl-14" value="" style="rounded=0;whiteSpace=wrap;html=1;fillColor=#FFFFFF;" vertex="1" parent="Yxc4LO8ZKotI-C8fvzfl-13">
                    <mxGeometry width="25.181818181818183" height="12.857142857142861" as="geometry"/>
                </mxCell>
                <mxCell id="Yxc4LO8ZKotI-C8fvzfl-15" value="" style="endArrow=none;html=1;exitX=0;exitY=0;exitDx=0;exitDy=0;entryX=0.5;entryY=1;entryDx=0;entryDy=0;fillColor=#FFFFFF;" edge="1" parent="Yxc4LO8ZKotI-C8fvzfl-13" source="Yxc4LO8ZKotI-C8fvzfl-14" target="Yxc4LO8ZKotI-C8fvzfl-14">
                    <mxGeometry width="50" height="50" relative="1" as="geometry">
                        <mxPoint x="-49.734090909090895" y="282.857142857143" as="sourcePoint"/>
                        <mxPoint x="-62.324999999999996" y="270.00000000000006" as="targetPoint"/>
                    </mxGeometry>
                </mxCell>
                <mxCell id="Yxc4LO8ZKotI-C8fvzfl-16" value="" style="endArrow=none;html=1;exitX=1;exitY=0;exitDx=0;exitDy=0;entryX=0.5;entryY=1;entryDx=0;entryDy=0;fillColor=#FFFFFF;" edge="1" parent="Yxc4LO8ZKotI-C8fvzfl-13" source="Yxc4LO8ZKotI-C8fvzfl-14" target="Yxc4LO8ZKotI-C8fvzfl-14">
                    <mxGeometry width="50" height="50" relative="1" as="geometry">
                        <mxPoint x="6.295454545454546" y="6.428571428571431" as="sourcePoint"/>
                        <mxPoint x="18.886363636363633" y="19.28571428571429" as="targetPoint"/>
                    </mxGeometry>
                </mxCell>
                <mxCell id="Yxc4LO8ZKotI-C8fvzfl-199" value="2" style="edgeLabel;html=1;align=center;verticalAlign=middle;resizable=0;points=[];" vertex="1" connectable="0" parent="Yxc4LO8ZKotI-C8fvzfl-16">
                    <mxGeometry x="0.2917" y="-3" relative="1" as="geometry">
                        <mxPoint as="offset"/>
                    </mxGeometry>
                </mxCell>
                <mxCell id="Yxc4LO8ZKotI-C8fvzfl-17" value="" style="endArrow=classic;html=1;fillColor=#FFFFFF;exitX=0.5;exitY=1;exitDx=0;exitDy=0;entryX=0;entryY=0.5;entryDx=0;entryDy=0;" edge="1" parent="dWmCNEkzgsVjjiaqjVMm-47" target="Yxc4LO8ZKotI-C8fvzfl-14">
                    <mxGeometry width="50" height="50" relative="1" as="geometry">
                        <mxPoint x="164.62545454545466" y="144.6400000000002" as="sourcePoint"/>
                        <mxPoint x="1601.53" y="261.4257142857144" as="targetPoint"/>
                        <Array as="points">
                            <mxPoint x="173.43909090909074" y="167.14000000000004"/>
                        </Array>
                    </mxGeometry>
                </mxCell>
                <mxCell id="Yxc4LO8ZKotI-C8fvzfl-18" value="" style="endArrow=none;html=1;" edge="1" parent="dWmCNEkzgsVjjiaqjVMm-47">
                    <mxGeometry width="50" height="50" relative="1" as="geometry">
                        <mxPoint x="95.86181818181831" y="228.57285714285723" as="sourcePoint"/>
                        <mxPoint x="95.86181818181831" y="190.0014285714288" as="targetPoint"/>
                    </mxGeometry>
                </mxCell>
                <mxCell id="Yxc4LO8ZKotI-C8fvzfl-19" value="" style="endArrow=none;html=1;" edge="1" parent="dWmCNEkzgsVjjiaqjVMm-47">
                    <mxGeometry width="50" height="50" relative="1" as="geometry">
                        <mxPoint x="398.0436363636368" y="228.57285714285723" as="sourcePoint"/>
                        <mxPoint x="398.0436363636368" y="190.0014285714288" as="targetPoint"/>
                    </mxGeometry>
                </mxCell>
                <mxCell id="Yxc4LO8ZKotI-C8fvzfl-20" value="" style="endArrow=none;html=1;" edge="1" parent="dWmCNEkzgsVjjiaqjVMm-47">
                    <mxGeometry width="50" height="50" relative="1" as="geometry">
                        <mxPoint x="297.0015909090912" y="228.57285714285723" as="sourcePoint"/>
                        <mxPoint x="297.0015909090912" y="190.0014285714288" as="targetPoint"/>
                    </mxGeometry>
                </mxCell>
                <mxCell id="Yxc4LO8ZKotI-C8fvzfl-21" value="" style="endArrow=none;html=1;" edge="1" parent="dWmCNEkzgsVjjiaqjVMm-47">
                    <mxGeometry width="50" height="50" relative="1" as="geometry">
                        <mxPoint x="196.58909090909128" y="228.57285714285723" as="sourcePoint"/>
                        <mxPoint x="196.58909090909128" y="190.0014285714288" as="targetPoint"/>
                    </mxGeometry>
                </mxCell>
                <mxCell id="Yxc4LO8ZKotI-C8fvzfl-22" value="getInput" style="rounded=0;whiteSpace=wrap;html=1;fillColor=#999999;" vertex="1" parent="dWmCNEkzgsVjjiaqjVMm-47">
                    <mxGeometry x="108.45272727272754" y="199.6442857142858" width="75.54545454545456" height="19.28571428571429" as="geometry"/>
                </mxCell>
                <mxCell id="Yxc4LO8ZKotI-C8fvzfl-23" value="&lt;span&gt;getInput&lt;/span&gt;" style="rounded=0;whiteSpace=wrap;html=1;fillColor=#999999;" vertex="1" parent="dWmCNEkzgsVjjiaqjVMm-47">
                    <mxGeometry x="308.6481818181819" y="199.6442857142858" width="75.54545454545456" height="19.28571428571429" as="geometry"/>
                </mxCell>
                <mxCell id="Yxc4LO8ZKotI-C8fvzfl-24" value="&lt;span&gt;getInput&lt;/span&gt;" style="rounded=0;whiteSpace=wrap;html=1;fillColor=#999999;" vertex="1" parent="dWmCNEkzgsVjjiaqjVMm-47">
                    <mxGeometry x="211.06863636363641" y="199.6442857142858" width="75.54545454545456" height="19.28571428571429" as="geometry"/>
                </mxCell>
                <mxCell id="Yxc4LO8ZKotI-C8fvzfl-25" value="" style="group" vertex="1" connectable="0" parent="dWmCNEkzgsVjjiaqjVMm-47">
                    <mxGeometry x="204.49681818181807" y="235.00142857142862" width="25.181818181818183" height="12.857142857142861" as="geometry"/>
                </mxCell>
                <mxCell id="Yxc4LO8ZKotI-C8fvzfl-26" value="" style="rounded=0;whiteSpace=wrap;html=1;fillColor=#FFFFFF;" vertex="1" parent="Yxc4LO8ZKotI-C8fvzfl-25">
                    <mxGeometry width="25.181818181818183" height="12.857142857142861" as="geometry"/>
                </mxCell>
                <mxCell id="Yxc4LO8ZKotI-C8fvzfl-27" value="" style="endArrow=none;html=1;exitX=0;exitY=0;exitDx=0;exitDy=0;entryX=0.5;entryY=1;entryDx=0;entryDy=0;fillColor=#FFFFFF;" edge="1" parent="Yxc4LO8ZKotI-C8fvzfl-25" source="Yxc4LO8ZKotI-C8fvzfl-26" target="Yxc4LO8ZKotI-C8fvzfl-26">
                    <mxGeometry width="50" height="50" relative="1" as="geometry">
                        <mxPoint x="-49.734090909090895" y="282.857142857143" as="sourcePoint"/>
                        <mxPoint x="-62.324999999999996" y="270.00000000000006" as="targetPoint"/>
                    </mxGeometry>
                </mxCell>
                <mxCell id="Yxc4LO8ZKotI-C8fvzfl-200" value="3" style="edgeLabel;html=1;align=center;verticalAlign=middle;resizable=0;points=[];" vertex="1" connectable="0" parent="Yxc4LO8ZKotI-C8fvzfl-27">
                    <mxGeometry x="0.4933" y="-3" relative="1" as="geometry">
                        <mxPoint as="offset"/>
                    </mxGeometry>
                </mxCell>
                <mxCell id="Yxc4LO8ZKotI-C8fvzfl-28" value="" style="endArrow=none;html=1;exitX=1;exitY=0;exitDx=0;exitDy=0;entryX=0.5;entryY=1;entryDx=0;entryDy=0;fillColor=#FFFFFF;" edge="1" parent="Yxc4LO8ZKotI-C8fvzfl-25" source="Yxc4LO8ZKotI-C8fvzfl-26" target="Yxc4LO8ZKotI-C8fvzfl-26">
                    <mxGeometry width="50" height="50" relative="1" as="geometry">
                        <mxPoint x="6.295454545454546" y="6.428571428571431" as="sourcePoint"/>
                        <mxPoint x="18.886363636363633" y="19.28571428571429" as="targetPoint"/>
                    </mxGeometry>
                </mxCell>
                <mxCell id="Yxc4LO8ZKotI-C8fvzfl-29" value="" style="endArrow=classic;html=1;fillColor=#FFFFFF;exitX=0.5;exitY=1;exitDx=0;exitDy=0;entryX=0;entryY=0.5;entryDx=0;entryDy=0;" edge="1" parent="dWmCNEkzgsVjjiaqjVMm-47" target="Yxc4LO8ZKotI-C8fvzfl-26">
                    <mxGeometry width="50" height="50" relative="1" as="geometry">
                        <mxPoint x="164.83545454545492" y="218.93000000000035" as="sourcePoint"/>
                        <mxPoint x="3155.74" y="185.7157142857144" as="targetPoint"/>
                        <Array as="points">
                            <mxPoint x="173.64909090909077" y="241.43000000000006"/>
                        </Array>
                    </mxGeometry>
                </mxCell>
                <mxCell id="Yxc4LO8ZKotI-C8fvzfl-30" value="" style="endArrow=none;html=1;" edge="1" parent="dWmCNEkzgsVjjiaqjVMm-47">
                    <mxGeometry width="50" height="50" relative="1" as="geometry">
                        <mxPoint x="95.86181818181831" y="308.5728571428572" as="sourcePoint"/>
                        <mxPoint x="95.86181818181831" y="270.00142857142873" as="targetPoint"/>
                    </mxGeometry>
                </mxCell>
                <mxCell id="Yxc4LO8ZKotI-C8fvzfl-31" value="" style="endArrow=none;html=1;" edge="1" parent="dWmCNEkzgsVjjiaqjVMm-47">
                    <mxGeometry width="50" height="50" relative="1" as="geometry">
                        <mxPoint x="398.0436363636368" y="308.5728571428572" as="sourcePoint"/>
                        <mxPoint x="398.0436363636368" y="270.00142857142873" as="targetPoint"/>
                    </mxGeometry>
                </mxCell>
                <mxCell id="Yxc4LO8ZKotI-C8fvzfl-32" value="" style="endArrow=none;html=1;" edge="1" parent="dWmCNEkzgsVjjiaqjVMm-47">
                    <mxGeometry width="50" height="50" relative="1" as="geometry">
                        <mxPoint x="297.0015909090912" y="308.5728571428572" as="sourcePoint"/>
                        <mxPoint x="297.0015909090912" y="270.00142857142873" as="targetPoint"/>
                    </mxGeometry>
                </mxCell>
                <mxCell id="Yxc4LO8ZKotI-C8fvzfl-33" value="" style="endArrow=none;html=1;" edge="1" parent="dWmCNEkzgsVjjiaqjVMm-47">
                    <mxGeometry width="50" height="50" relative="1" as="geometry">
                        <mxPoint x="196.58909090909128" y="308.5728571428572" as="sourcePoint"/>
                        <mxPoint x="196.58909090909128" y="270.00142857142873" as="targetPoint"/>
                    </mxGeometry>
                </mxCell>
                <mxCell id="Yxc4LO8ZKotI-C8fvzfl-34" value="getInput" style="rounded=0;whiteSpace=wrap;html=1;fillColor=#999999;" vertex="1" parent="dWmCNEkzgsVjjiaqjVMm-47">
                    <mxGeometry x="108.45272727272754" y="279.64428571428573" width="75.54545454545456" height="19.28571428571429" as="geometry"/>
                </mxCell>
                <mxCell id="Yxc4LO8ZKotI-C8fvzfl-35" value="&lt;span&gt;getInput&lt;/span&gt;" style="rounded=0;whiteSpace=wrap;html=1;fillColor=#999999;" vertex="1" parent="dWmCNEkzgsVjjiaqjVMm-47">
                    <mxGeometry x="308.6481818181819" y="279.64428571428573" width="75.54545454545456" height="19.28571428571429" as="geometry"/>
                </mxCell>
                <mxCell id="Yxc4LO8ZKotI-C8fvzfl-36" value="&lt;span&gt;getInput&lt;/span&gt;" style="rounded=0;whiteSpace=wrap;html=1;fillColor=#999999;" vertex="1" parent="dWmCNEkzgsVjjiaqjVMm-47">
                    <mxGeometry x="211.06863636363641" y="279.64428571428573" width="75.54545454545456" height="19.28571428571429" as="geometry"/>
                </mxCell>
                <mxCell id="Yxc4LO8ZKotI-C8fvzfl-37" value="" style="group" vertex="1" connectable="0" parent="dWmCNEkzgsVjjiaqjVMm-47">
                    <mxGeometry x="204.49681818181807" y="315.0014285714286" width="25.181818181818183" height="12.857142857142861" as="geometry"/>
                </mxCell>
                <mxCell id="Yxc4LO8ZKotI-C8fvzfl-38" value="" style="rounded=0;whiteSpace=wrap;html=1;fillColor=#FFFFFF;" vertex="1" parent="Yxc4LO8ZKotI-C8fvzfl-37">
                    <mxGeometry width="25.181818181818183" height="12.857142857142861" as="geometry"/>
                </mxCell>
                <mxCell id="Yxc4LO8ZKotI-C8fvzfl-39" value="" style="endArrow=none;html=1;exitX=0;exitY=0;exitDx=0;exitDy=0;entryX=0.5;entryY=1;entryDx=0;entryDy=0;fillColor=#FFFFFF;" edge="1" parent="Yxc4LO8ZKotI-C8fvzfl-37" source="Yxc4LO8ZKotI-C8fvzfl-38" target="Yxc4LO8ZKotI-C8fvzfl-38">
                    <mxGeometry width="50" height="50" relative="1" as="geometry">
                        <mxPoint x="-49.734090909090895" y="282.857142857143" as="sourcePoint"/>
                        <mxPoint x="-62.324999999999996" y="270.00000000000006" as="targetPoint"/>
                    </mxGeometry>
                </mxCell>
                <mxCell id="Yxc4LO8ZKotI-C8fvzfl-201" value="4" style="edgeLabel;html=1;align=center;verticalAlign=middle;resizable=0;points=[];" vertex="1" connectable="0" parent="Yxc4LO8ZKotI-C8fvzfl-39">
                    <mxGeometry x="0.2768" y="-1" relative="1" as="geometry">
                        <mxPoint as="offset"/>
                    </mxGeometry>
                </mxCell>
                <mxCell id="Yxc4LO8ZKotI-C8fvzfl-40" value="" style="endArrow=none;html=1;exitX=1;exitY=0;exitDx=0;exitDy=0;entryX=0.5;entryY=1;entryDx=0;entryDy=0;fillColor=#FFFFFF;" edge="1" parent="Yxc4LO8ZKotI-C8fvzfl-37" source="Yxc4LO8ZKotI-C8fvzfl-38" target="Yxc4LO8ZKotI-C8fvzfl-38">
                    <mxGeometry width="50" height="50" relative="1" as="geometry">
                        <mxPoint x="6.295454545454546" y="6.428571428571431" as="sourcePoint"/>
                        <mxPoint x="18.886363636363633" y="19.28571428571429" as="targetPoint"/>
                    </mxGeometry>
                </mxCell>
                <mxCell id="Yxc4LO8ZKotI-C8fvzfl-41" value="" style="endArrow=classic;html=1;fillColor=#FFFFFF;exitX=0.5;exitY=1;exitDx=0;exitDy=0;entryX=0;entryY=0.5;entryDx=0;entryDy=0;" edge="1" parent="dWmCNEkzgsVjjiaqjVMm-47" target="Yxc4LO8ZKotI-C8fvzfl-38">
                    <mxGeometry width="50" height="50" relative="1" as="geometry">
                        <mxPoint x="164.83545454545492" y="298.9300000000003" as="sourcePoint"/>
                        <mxPoint x="3155.74" y="265.7157142857144" as="targetPoint"/>
                        <Array as="points">
                            <mxPoint x="173.64909090909077" y="321.43000000000006"/>
                        </Array>
                    </mxGeometry>
                </mxCell>
                <mxCell id="Yxc4LO8ZKotI-C8fvzfl-166" value="" style="ellipse;whiteSpace=wrap;html=1;fillColor=#000000;" vertex="1" parent="dWmCNEkzgsVjjiaqjVMm-47">
                    <mxGeometry x="503.9981818181818" width="12.590909090909092" height="12.857142857142861" as="geometry"/>
                </mxCell>
                <mxCell id="Yxc4LO8ZKotI-C8fvzfl-167" value="" style="ellipse;whiteSpace=wrap;html=1;fillColor=#000000;" vertex="1" parent="dWmCNEkzgsVjjiaqjVMm-47">
                    <mxGeometry x="623.9981818181818" width="12.590909090909092" height="12.857142857142861" as="geometry"/>
                </mxCell>
                <mxCell id="Yxc4LO8ZKotI-C8fvzfl-168" value="" style="endArrow=none;html=1;" edge="1" parent="dWmCNEkzgsVjjiaqjVMm-47" source="dWmCNEkzgsVjjiaqjVMm-18" target="Yxc4LO8ZKotI-C8fvzfl-167">
                    <mxGeometry width="50" height="50" relative="1" as="geometry">
                        <mxPoint x="-1151.0909090909126" y="156.42857142857156" as="sourcePoint"/>
                        <mxPoint x="-790" y="156" as="targetPoint"/>
                    </mxGeometry>
                </mxCell>
                <mxCell id="Yxc4LO8ZKotI-C8fvzfl-169" value="" style="ellipse;whiteSpace=wrap;html=1;fillColor=#000000;" vertex="1" parent="dWmCNEkzgsVjjiaqjVMm-47">
                    <mxGeometry x="747.4081818181817" width="12.590909090909092" height="12.857142857142861" as="geometry"/>
                </mxCell>
                <mxCell id="Yxc4LO8ZKotI-C8fvzfl-170" value="" style="endArrow=none;html=1;startArrow=none;" edge="1" parent="dWmCNEkzgsVjjiaqjVMm-47" source="Yxc4LO8ZKotI-C8fvzfl-167" target="Yxc4LO8ZKotI-C8fvzfl-169">
                    <mxGeometry width="50" height="50" relative="1" as="geometry">
                        <mxPoint x="-917.4109090909124" y="156.42857142857156" as="sourcePoint"/>
                        <mxPoint x="-790" y="156" as="targetPoint"/>
                    </mxGeometry>
                </mxCell>
                <mxCell id="Yxc4LO8ZKotI-C8fvzfl-174" value="" style="endArrow=none;html=1;" edge="1" parent="dWmCNEkzgsVjjiaqjVMm-47">
                    <mxGeometry width="50" height="50" relative="1" as="geometry">
                        <mxPoint x="509.931590909091" y="77.14285714285711" as="sourcePoint"/>
                        <mxPoint x="509.931590909091" y="38.57142857142867" as="targetPoint"/>
                    </mxGeometry>
                </mxCell>
                <mxCell id="Yxc4LO8ZKotI-C8fvzfl-175" value="&lt;span&gt;getInput&lt;/span&gt;" style="rounded=0;whiteSpace=wrap;html=1;fillColor=#999999;" vertex="1" parent="dWmCNEkzgsVjjiaqjVMm-47">
                    <mxGeometry x="423.99863636363625" y="48.21428571428575" width="75.54545454545456" height="19.28571428571429" as="geometry"/>
                </mxCell>
                <mxCell id="Yxc4LO8ZKotI-C8fvzfl-176" value="" style="endArrow=none;html=1;" edge="1" parent="dWmCNEkzgsVjjiaqjVMm-47">
                    <mxGeometry width="50" height="50" relative="1" as="geometry">
                        <mxPoint x="635.6815909090909" y="77.14285714285711" as="sourcePoint"/>
                        <mxPoint x="635.6815909090909" y="38.57142857142867" as="targetPoint"/>
                    </mxGeometry>
                </mxCell>
                <mxCell id="Yxc4LO8ZKotI-C8fvzfl-177" value="&lt;span&gt;getInput&lt;/span&gt;" style="rounded=0;whiteSpace=wrap;html=1;fillColor=#999999;" vertex="1" parent="dWmCNEkzgsVjjiaqjVMm-47">
                    <mxGeometry x="549.7486363636364" y="48.21428571428575" width="75.54545454545456" height="19.28571428571429" as="geometry"/>
                </mxCell>
                <mxCell id="Yxc4LO8ZKotI-C8fvzfl-178" value="" style="endArrow=none;html=1;" edge="1" parent="dWmCNEkzgsVjjiaqjVMm-47">
                    <mxGeometry width="50" height="50" relative="1" as="geometry">
                        <mxPoint x="759.0915909090909" y="77.14285714285711" as="sourcePoint"/>
                        <mxPoint x="759.0915909090909" y="38.57142857142867" as="targetPoint"/>
                    </mxGeometry>
                </mxCell>
                <mxCell id="Yxc4LO8ZKotI-C8fvzfl-179" value="&lt;span&gt;getInput&lt;/span&gt;" style="rounded=0;whiteSpace=wrap;html=1;fillColor=#999999;" vertex="1" parent="dWmCNEkzgsVjjiaqjVMm-47">
                    <mxGeometry x="673.1586363636363" y="48.21428571428575" width="75.54545454545456" height="19.28571428571429" as="geometry"/>
                </mxCell>
                <mxCell id="Yxc4LO8ZKotI-C8fvzfl-180" value="" style="endArrow=none;html=1;" edge="1" parent="dWmCNEkzgsVjjiaqjVMm-47">
                    <mxGeometry width="50" height="50" relative="1" as="geometry">
                        <mxPoint x="509.931590909091" y="154.2828571428571" as="sourcePoint"/>
                        <mxPoint x="509.931590909091" y="115.71142857142866" as="targetPoint"/>
                    </mxGeometry>
                </mxCell>
                <mxCell id="Yxc4LO8ZKotI-C8fvzfl-181" value="&lt;span&gt;getInput&lt;/span&gt;" style="rounded=0;whiteSpace=wrap;html=1;fillColor=#999999;" vertex="1" parent="dWmCNEkzgsVjjiaqjVMm-47">
                    <mxGeometry x="423.99863636363625" y="125.35428571428577" width="75.54545454545456" height="19.28571428571429" as="geometry"/>
                </mxCell>
                <mxCell id="Yxc4LO8ZKotI-C8fvzfl-182" value="" style="endArrow=none;html=1;" edge="1" parent="dWmCNEkzgsVjjiaqjVMm-47">
                    <mxGeometry width="50" height="50" relative="1" as="geometry">
                        <mxPoint x="635.6815909090909" y="154.2828571428571" as="sourcePoint"/>
                        <mxPoint x="635.6815909090909" y="115.71142857142866" as="targetPoint"/>
                    </mxGeometry>
                </mxCell>
                <mxCell id="Yxc4LO8ZKotI-C8fvzfl-183" value="&lt;span&gt;getInput&lt;/span&gt;" style="rounded=0;whiteSpace=wrap;html=1;fillColor=#999999;" vertex="1" parent="dWmCNEkzgsVjjiaqjVMm-47">
                    <mxGeometry x="549.7486363636364" y="125.35428571428577" width="75.54545454545456" height="19.28571428571429" as="geometry"/>
                </mxCell>
                <mxCell id="Yxc4LO8ZKotI-C8fvzfl-184" value="" style="endArrow=none;html=1;" edge="1" parent="dWmCNEkzgsVjjiaqjVMm-47">
                    <mxGeometry width="50" height="50" relative="1" as="geometry">
                        <mxPoint x="759.0915909090909" y="154.2828571428571" as="sourcePoint"/>
                        <mxPoint x="759.0915909090909" y="115.71142857142866" as="targetPoint"/>
                    </mxGeometry>
                </mxCell>
                <mxCell id="Yxc4LO8ZKotI-C8fvzfl-185" value="&lt;span&gt;getInput&lt;/span&gt;" style="rounded=0;whiteSpace=wrap;html=1;fillColor=#999999;" vertex="1" parent="dWmCNEkzgsVjjiaqjVMm-47">
                    <mxGeometry x="673.1586363636363" y="125.35428571428577" width="75.54545454545456" height="19.28571428571429" as="geometry"/>
                </mxCell>
                <mxCell id="Yxc4LO8ZKotI-C8fvzfl-186" value="" style="endArrow=none;html=1;" edge="1" parent="dWmCNEkzgsVjjiaqjVMm-47">
                    <mxGeometry width="50" height="50" relative="1" as="geometry">
                        <mxPoint x="509.931590909091" y="231.43285714285713" as="sourcePoint"/>
                        <mxPoint x="509.931590909091" y="192.8614285714287" as="targetPoint"/>
                    </mxGeometry>
                </mxCell>
                <mxCell id="Yxc4LO8ZKotI-C8fvzfl-187" value="&lt;span&gt;getInput&lt;/span&gt;" style="rounded=0;whiteSpace=wrap;html=1;fillColor=#999999;" vertex="1" parent="dWmCNEkzgsVjjiaqjVMm-47">
                    <mxGeometry x="423.99863636363625" y="202.5042857142858" width="75.54545454545456" height="19.28571428571429" as="geometry"/>
                </mxCell>
                <mxCell id="Yxc4LO8ZKotI-C8fvzfl-188" value="" style="endArrow=none;html=1;" edge="1" parent="dWmCNEkzgsVjjiaqjVMm-47">
                    <mxGeometry width="50" height="50" relative="1" as="geometry">
                        <mxPoint x="635.6815909090909" y="235.00285714285712" as="sourcePoint"/>
                        <mxPoint x="635.6815909090909" y="196.43142857142868" as="targetPoint"/>
                    </mxGeometry>
                </mxCell>
                <mxCell id="Yxc4LO8ZKotI-C8fvzfl-189" value="&lt;span&gt;getInput&lt;/span&gt;" style="rounded=0;whiteSpace=wrap;html=1;fillColor=#999999;" vertex="1" parent="dWmCNEkzgsVjjiaqjVMm-47">
                    <mxGeometry x="549.7486363636364" y="206.0742857142858" width="75.54545454545456" height="19.28571428571429" as="geometry"/>
                </mxCell>
                <mxCell id="Yxc4LO8ZKotI-C8fvzfl-190" value="" style="endArrow=none;html=1;" edge="1" parent="dWmCNEkzgsVjjiaqjVMm-47">
                    <mxGeometry width="50" height="50" relative="1" as="geometry">
                        <mxPoint x="759.0915909090909" y="228.57285714285712" as="sourcePoint"/>
                        <mxPoint x="759.0915909090909" y="190.00142857142868" as="targetPoint"/>
                    </mxGeometry>
                </mxCell>
                <mxCell id="Yxc4LO8ZKotI-C8fvzfl-191" value="&lt;span&gt;getInput&lt;/span&gt;" style="rounded=0;whiteSpace=wrap;html=1;fillColor=#999999;" vertex="1" parent="dWmCNEkzgsVjjiaqjVMm-47">
                    <mxGeometry x="673.1586363636363" y="199.6442857142858" width="75.54545454545456" height="19.28571428571429" as="geometry"/>
                </mxCell>
                <mxCell id="Yxc4LO8ZKotI-C8fvzfl-192" value="" style="endArrow=none;html=1;" edge="1" parent="dWmCNEkzgsVjjiaqjVMm-47">
                    <mxGeometry width="50" height="50" relative="1" as="geometry">
                        <mxPoint x="509.9315909090908" y="308.5728571428571" as="sourcePoint"/>
                        <mxPoint x="509.9315909090908" y="270.0014285714287" as="targetPoint"/>
                    </mxGeometry>
                </mxCell>
                <mxCell id="Yxc4LO8ZKotI-C8fvzfl-193" value="&lt;span&gt;getInput&lt;/span&gt;" style="rounded=0;whiteSpace=wrap;html=1;fillColor=#999999;" vertex="1" parent="dWmCNEkzgsVjjiaqjVMm-47">
                    <mxGeometry x="423.99863636363625" y="279.6442857142858" width="75.54545454545456" height="19.28571428571429" as="geometry"/>
                </mxCell>
                <mxCell id="Yxc4LO8ZKotI-C8fvzfl-194" value="" style="endArrow=none;html=1;" edge="1" parent="dWmCNEkzgsVjjiaqjVMm-47">
                    <mxGeometry width="50" height="50" relative="1" as="geometry">
                        <mxPoint x="635.6815909090909" y="308.5728571428571" as="sourcePoint"/>
                        <mxPoint x="635.6815909090909" y="270.0014285714287" as="targetPoint"/>
                    </mxGeometry>
                </mxCell>
                <mxCell id="Yxc4LO8ZKotI-C8fvzfl-195" value="&lt;span&gt;getInput&lt;/span&gt;" style="rounded=0;whiteSpace=wrap;html=1;fillColor=#999999;" vertex="1" parent="dWmCNEkzgsVjjiaqjVMm-47">
                    <mxGeometry x="549.7486363636364" y="279.6442857142858" width="75.54545454545456" height="19.28571428571429" as="geometry"/>
                </mxCell>
                <mxCell id="Yxc4LO8ZKotI-C8fvzfl-196" value="" style="endArrow=none;html=1;" edge="1" parent="dWmCNEkzgsVjjiaqjVMm-47">
                    <mxGeometry width="50" height="50" relative="1" as="geometry">
                        <mxPoint x="759.0915909090909" y="308.5728571428571" as="sourcePoint"/>
                        <mxPoint x="759.0915909090909" y="270.0014285714287" as="targetPoint"/>
                    </mxGeometry>
                </mxCell>
                <mxCell id="Yxc4LO8ZKotI-C8fvzfl-197" value="&lt;span&gt;getInput&lt;/span&gt;" style="rounded=0;whiteSpace=wrap;html=1;fillColor=#999999;" vertex="1" parent="dWmCNEkzgsVjjiaqjVMm-47">
                    <mxGeometry x="673.1586363636363" y="279.6442857142858" width="75.54545454545456" height="19.28571428571429" as="geometry"/>
                </mxCell>
                <mxCell id="Yxc4LO8ZKotI-C8fvzfl-207" value="" style="endArrow=none;html=1;" edge="1" parent="dWmCNEkzgsVjjiaqjVMm-47">
                    <mxGeometry width="50" height="50" relative="1" as="geometry">
                        <mxPoint x="399.6115909090911" y="385.71285714285693" as="sourcePoint"/>
                        <mxPoint x="399.6115909090911" y="347.1414285714287" as="targetPoint"/>
                    </mxGeometry>
                </mxCell>
                <mxCell id="Yxc4LO8ZKotI-C8fvzfl-208" value="" style="endArrow=none;html=1;" edge="1" parent="dWmCNEkzgsVjjiaqjVMm-47">
                    <mxGeometry width="50" height="50" relative="1" as="geometry">
                        <mxPoint x="523.021590909091" y="385.71285714285693" as="sourcePoint"/>
                        <mxPoint x="523.021590909091" y="347.1414285714287" as="targetPoint"/>
                    </mxGeometry>
                </mxCell>
                <mxCell id="Yxc4LO8ZKotI-C8fvzfl-209" value="&lt;span&gt;add&lt;/span&gt;" style="rounded=0;whiteSpace=wrap;html=1;fillColor=#999999;" vertex="1" parent="dWmCNEkzgsVjjiaqjVMm-47">
                    <mxGeometry x="437.0886363636364" y="356.7842857142858" width="75.54545454545456" height="19.28571428571429" as="geometry"/>
                </mxCell>
                <mxCell id="Yxc4LO8ZKotI-C8fvzfl-211" value="" style="endArrow=none;html=1;" edge="1" parent="dWmCNEkzgsVjjiaqjVMm-47">
                    <mxGeometry width="50" height="50" relative="1" as="geometry">
                        <mxPoint x="636.591590909091" y="458.57285714285695" as="sourcePoint"/>
                        <mxPoint x="636.591590909091" y="420.00142857142873" as="targetPoint"/>
                    </mxGeometry>
                </mxCell>
                <mxCell id="Yxc4LO8ZKotI-C8fvzfl-212" value="" style="endArrow=none;html=1;" edge="1" parent="dWmCNEkzgsVjjiaqjVMm-47">
                    <mxGeometry width="50" height="50" relative="1" as="geometry">
                        <mxPoint x="760.0015909090909" y="458.57285714285695" as="sourcePoint"/>
                        <mxPoint x="760.0015909090909" y="420.00142857142873" as="targetPoint"/>
                    </mxGeometry>
                </mxCell>
                <mxCell id="Yxc4LO8ZKotI-C8fvzfl-213" value="&lt;span&gt;display&lt;/span&gt;" style="rounded=0;whiteSpace=wrap;html=1;fillColor=#999999;" vertex="1" parent="dWmCNEkzgsVjjiaqjVMm-47">
                    <mxGeometry x="674.0686363636363" y="429.64428571428584" width="75.54545454545456" height="19.28571428571429" as="geometry"/>
                </mxCell>
                <mxCell id="Yxc4LO8ZKotI-C8fvzfl-214" value="" style="group" vertex="1" connectable="0" parent="dWmCNEkzgsVjjiaqjVMm-47">
                    <mxGeometry x="524.566818181818" y="392.14142857142855" width="25.181818181818183" height="12.857142857142861" as="geometry"/>
                </mxCell>
                <mxCell id="Yxc4LO8ZKotI-C8fvzfl-215" value="" style="rounded=0;whiteSpace=wrap;html=1;fillColor=#FFFFFF;" vertex="1" parent="Yxc4LO8ZKotI-C8fvzfl-214">
                    <mxGeometry width="25.181818181818183" height="12.857142857142861" as="geometry"/>
                </mxCell>
                <mxCell id="Yxc4LO8ZKotI-C8fvzfl-216" value="" style="endArrow=none;html=1;exitX=0;exitY=0;exitDx=0;exitDy=0;entryX=0.5;entryY=1;entryDx=0;entryDy=0;fillColor=#FFFFFF;" edge="1" parent="Yxc4LO8ZKotI-C8fvzfl-214" source="Yxc4LO8ZKotI-C8fvzfl-215" target="Yxc4LO8ZKotI-C8fvzfl-215">
                    <mxGeometry width="50" height="50" relative="1" as="geometry">
                        <mxPoint x="-49.734090909090895" y="282.857142857143" as="sourcePoint"/>
                        <mxPoint x="-62.324999999999996" y="270.00000000000006" as="targetPoint"/>
                    </mxGeometry>
                </mxCell>
                <mxCell id="Yxc4LO8ZKotI-C8fvzfl-217" value="3" style="edgeLabel;html=1;align=center;verticalAlign=middle;resizable=0;points=[];" vertex="1" connectable="0" parent="Yxc4LO8ZKotI-C8fvzfl-216">
                    <mxGeometry x="0.4933" y="-3" relative="1" as="geometry">
                        <mxPoint as="offset"/>
                    </mxGeometry>
                </mxCell>
                <mxCell id="Yxc4LO8ZKotI-C8fvzfl-218" value="" style="endArrow=none;html=1;exitX=1;exitY=0;exitDx=0;exitDy=0;entryX=0.5;entryY=1;entryDx=0;entryDy=0;fillColor=#FFFFFF;" edge="1" parent="Yxc4LO8ZKotI-C8fvzfl-214" source="Yxc4LO8ZKotI-C8fvzfl-215" target="Yxc4LO8ZKotI-C8fvzfl-215">
                    <mxGeometry width="50" height="50" relative="1" as="geometry">
                        <mxPoint x="6.295454545454546" y="6.428571428571431" as="sourcePoint"/>
                        <mxPoint x="18.886363636363633" y="19.28571428571429" as="targetPoint"/>
                    </mxGeometry>
                </mxCell>
                <mxCell id="Yxc4LO8ZKotI-C8fvzfl-219" value="" style="endArrow=classic;html=1;fillColor=#FFFFFF;exitX=0.5;exitY=1;exitDx=0;exitDy=0;entryX=0;entryY=0.5;entryDx=0;entryDy=0;" edge="1" parent="dWmCNEkzgsVjjiaqjVMm-47" target="Yxc4LO8ZKotI-C8fvzfl-215">
                    <mxGeometry width="50" height="50" relative="1" as="geometry">
                        <mxPoint x="484.90545454545486" y="376.07000000000056" as="sourcePoint"/>
                        <mxPoint x="5029.8099999999995" y="192.8557142857144" as="targetPoint"/>
                        <Array as="points">
                            <mxPoint x="493.7190909090907" y="398.5700000000001"/>
                        </Array>
                    </mxGeometry>
                </mxCell>
                <mxCell id="cpVh1sM_AjfaIW0yvog2-1" value="Exigence 3" style="rounded=0;whiteSpace=wrap;html=1;fillColor=#ffe6cc;strokeColor=#d79b00;" parent="1" vertex="1">
                    <mxGeometry x="-1320" y="-960" width="120" height="60" as="geometry"/>
                </mxCell>
                <mxCell id="cpVh1sM_AjfaIW0yvog2-2" value="Exigence 4" style="rounded=0;whiteSpace=wrap;html=1;fillColor=#dae8fc;strokeColor=#6c8ebf;" parent="1" vertex="1">
                    <mxGeometry x="-1026" y="-960" width="120" height="60" as="geometry"/>
                </mxCell>
                <mxCell id="cpVh1sM_AjfaIW0yvog2-3" value="Exigence 5" style="rounded=0;whiteSpace=wrap;html=1;fillColor=#d5e8d4;strokeColor=#82b366;" parent="1" vertex="1">
                    <mxGeometry x="-890" y="-960" width="120" height="60" as="geometry"/>
                </mxCell>
                <mxCell id="cpVh1sM_AjfaIW0yvog2-4" value="" style="endArrow=classic;html=1;exitX=0.5;exitY=1;exitDx=0;exitDy=0;dashed=1;dashPattern=1 1;entryX=0.5;entryY=0;entryDx=0;entryDy=0;fillColor=#ffe6cc;strokeColor=#d79b00;" parent="1" source="cpVh1sM_AjfaIW0yvog2-1" target="pLuQ7xj04wKehVz2EtiJ-45" edge="1">
                    <mxGeometry width="50" height="50" relative="1" as="geometry">
                        <mxPoint x="-1390" y="-890" as="sourcePoint"/>
                        <mxPoint x="-1394" y="-685" as="targetPoint"/>
                    </mxGeometry>
                </mxCell>
                <mxCell id="cpVh1sM_AjfaIW0yvog2-5" value="&quot;allocate&quot;" style="text;html=1;align=center;verticalAlign=middle;resizable=0;points=[];;labelBackgroundColor=#ffffff;" parent="cpVh1sM_AjfaIW0yvog2-4" vertex="1" connectable="0">
                    <mxGeometry x="-0.3881" relative="1" as="geometry">
                        <mxPoint x="3.4" y="-16.08" as="offset"/>
                    </mxGeometry>
                </mxCell>
                <mxCell id="cpVh1sM_AjfaIW0yvog2-6" value="" style="endArrow=classic;html=1;exitX=0.5;exitY=1;exitDx=0;exitDy=0;dashed=1;dashPattern=1 1;entryX=0.75;entryY=0;entryDx=0;entryDy=0;fillColor=#dae8fc;strokeColor=#6c8ebf;" parent="1" source="cpVh1sM_AjfaIW0yvog2-2" target="pLuQ7xj04wKehVz2EtiJ-41" edge="1">
                    <mxGeometry width="50" height="50" relative="1" as="geometry">
                        <mxPoint x="-1099" y="-890" as="sourcePoint"/>
                        <mxPoint x="-1104" y="-685" as="targetPoint"/>
                    </mxGeometry>
                </mxCell>
                <mxCell id="cpVh1sM_AjfaIW0yvog2-7" value="&quot;allocate&quot;" style="text;html=1;align=center;verticalAlign=middle;resizable=0;points=[];;labelBackgroundColor=#ffffff;" parent="cpVh1sM_AjfaIW0yvog2-6" vertex="1" connectable="0">
                    <mxGeometry x="-0.3881" relative="1" as="geometry">
                        <mxPoint x="3" y="2" as="offset"/>
                    </mxGeometry>
                </mxCell>
                <mxCell id="cpVh1sM_AjfaIW0yvog2-8" value="" style="endArrow=classic;html=1;exitX=0.5;exitY=1;exitDx=0;exitDy=0;dashed=1;dashPattern=1 1;entryX=1;entryY=0;entryDx=0;entryDy=0;fillColor=#d5e8d4;strokeColor=#82b366;" parent="1" source="cpVh1sM_AjfaIW0yvog2-3" target="pLuQ7xj04wKehVz2EtiJ-41" edge="1">
                    <mxGeometry width="50" height="50" relative="1" as="geometry">
                        <mxPoint x="-956" y="-890" as="sourcePoint"/>
                        <mxPoint x="-1076.5" y="-685" as="targetPoint"/>
                    </mxGeometry>
                </mxCell>
                <mxCell id="cpVh1sM_AjfaIW0yvog2-9" value="&quot;allocate&quot;" style="text;html=1;align=center;verticalAlign=middle;resizable=0;points=[];;labelBackgroundColor=#ffffff;" parent="cpVh1sM_AjfaIW0yvog2-8" vertex="1" connectable="0">
                    <mxGeometry x="-0.3881" relative="1" as="geometry">
                        <mxPoint x="3" y="2" as="offset"/>
                    </mxGeometry>
                </mxCell>
                <mxCell id="cpVh1sM_AjfaIW0yvog2-10" value="" style="endArrow=classic;html=1;exitX=0.75;exitY=1;exitDx=0;exitDy=0;dashed=1;dashPattern=1 1;entryX=0.75;entryY=0;entryDx=0;entryDy=0;fillColor=#d5e8d4;strokeColor=#82b366;" parent="1" source="cpVh1sM_AjfaIW0yvog2-3" target="pLuQ7xj04wKehVz2EtiJ-43" edge="1">
                    <mxGeometry width="50" height="50" relative="1" as="geometry">
                        <mxPoint x="-946" y="-880" as="sourcePoint"/>
                        <mxPoint x="-1066.5" y="-675" as="targetPoint"/>
                    </mxGeometry>
                </mxCell>
                <mxCell id="cpVh1sM_AjfaIW0yvog2-11" value="&quot;allocate&quot;" style="text;html=1;align=center;verticalAlign=middle;resizable=0;points=[];;labelBackgroundColor=#ffffff;" parent="cpVh1sM_AjfaIW0yvog2-10" vertex="1" connectable="0">
                    <mxGeometry x="-0.3881" relative="1" as="geometry">
                        <mxPoint x="3" y="2" as="offset"/>
                    </mxGeometry>
                </mxCell>
                <mxCell id="Yxc4LO8ZKotI-C8fvzfl-77" value="0" style="text;html=1;strokeColor=none;fillColor=none;align=center;verticalAlign=middle;whiteSpace=wrap;rounded=0;" vertex="1" parent="1">
                    <mxGeometry x="-1480" y="130" width="50.36363636363637" height="12.857142857142861" as="geometry"/>
                </mxCell>
                <mxCell id="Yxc4LO8ZKotI-C8fvzfl-78" value="100" style="text;html=1;strokeColor=none;fillColor=none;align=center;verticalAlign=middle;whiteSpace=wrap;rounded=0;" vertex="1" parent="1">
                    <mxGeometry x="-1387.36" y="130" width="50.36363636363637" height="12.857142857142861" as="geometry"/>
                </mxCell>
                <mxCell id="Yxc4LO8ZKotI-C8fvzfl-79" value="200" style="text;html=1;strokeColor=none;fillColor=none;align=center;verticalAlign=middle;whiteSpace=wrap;rounded=0;" vertex="1" parent="1">
                    <mxGeometry x="-1285.18" y="130" width="50.36363636363637" height="12.857142857142861" as="geometry"/>
                </mxCell>
                <mxCell id="Yxc4LO8ZKotI-C8fvzfl-80" value="300" style="text;html=1;strokeColor=none;fillColor=none;align=center;verticalAlign=middle;whiteSpace=wrap;rounded=0;" vertex="1" parent="1">
                    <mxGeometry x="-1185.18" y="130" width="50.36363636363637" height="12.857142857142861" as="geometry"/>
                </mxCell>
                <mxCell id="Yxc4LO8ZKotI-C8fvzfl-171" value="400" style="text;html=1;strokeColor=none;fillColor=none;align=center;verticalAlign=middle;whiteSpace=wrap;rounded=0;" vertex="1" parent="1">
                    <mxGeometry x="-1066.3600000000001" y="130" width="50.36363636363637" height="12.857142857142861" as="geometry"/>
                </mxCell>
                <mxCell id="Yxc4LO8ZKotI-C8fvzfl-172" value="500" style="text;html=1;strokeColor=none;fillColor=none;align=center;verticalAlign=middle;whiteSpace=wrap;rounded=0;" vertex="1" parent="1">
                    <mxGeometry x="-950" y="130" width="50.36363636363637" height="12.857142857142861" as="geometry"/>
                </mxCell>
                <mxCell id="Yxc4LO8ZKotI-C8fvzfl-173" value="600" style="text;html=1;strokeColor=none;fillColor=none;align=center;verticalAlign=middle;whiteSpace=wrap;rounded=0;" vertex="1" parent="1">
                    <mxGeometry x="-820.3600000000001" y="130" width="50.36363636363637" height="12.857142857142861" as="geometry"/>
                </mxCell>
                <mxCell id="Yxc4LO8ZKotI-C8fvzfl-210" value="getMessage()" style="text;html=1;align=center;verticalAlign=middle;resizable=0;points=[];autosize=1;strokeColor=none;fillColor=none;" vertex="1" parent="1">
                    <mxGeometry x="-1205" y="480" width="90" height="20" as="geometry"/>
                </mxCell>
                <mxCell id="Yxc4LO8ZKotI-C8fvzfl-221" value="" style="group" vertex="1" connectable="0" parent="1">
                    <mxGeometry x="-787.943181818182" y="616.0714285714287" width="25.181818181818183" height="12.857142857142861" as="geometry"/>
                </mxCell>
                <mxCell id="Yxc4LO8ZKotI-C8fvzfl-222" value="" style="rounded=0;whiteSpace=wrap;html=1;fillColor=#FFFFFF;" vertex="1" parent="Yxc4LO8ZKotI-C8fvzfl-221">
                    <mxGeometry width="25.181818181818183" height="12.857142857142861" as="geometry"/>
                </mxCell>
                <mxCell id="Yxc4LO8ZKotI-C8fvzfl-223" value="" style="endArrow=none;html=1;exitX=0;exitY=0;exitDx=0;exitDy=0;entryX=0.5;entryY=1;entryDx=0;entryDy=0;fillColor=#FFFFFF;" edge="1" parent="Yxc4LO8ZKotI-C8fvzfl-221" source="Yxc4LO8ZKotI-C8fvzfl-222" target="Yxc4LO8ZKotI-C8fvzfl-222">
                    <mxGeometry width="50" height="50" relative="1" as="geometry">
                        <mxPoint x="-49.734090909090895" y="282.857142857143" as="sourcePoint"/>
                        <mxPoint x="-62.324999999999996" y="270.00000000000006" as="targetPoint"/>
                    </mxGeometry>
                </mxCell>
                <mxCell id="Yxc4LO8ZKotI-C8fvzfl-224" value="3" style="edgeLabel;html=1;align=center;verticalAlign=middle;resizable=0;points=[];" vertex="1" connectable="0" parent="Yxc4LO8ZKotI-C8fvzfl-223">
                    <mxGeometry x="0.4933" y="-3" relative="1" as="geometry">
                        <mxPoint as="offset"/>
                    </mxGeometry>
                </mxCell>
                <mxCell id="Yxc4LO8ZKotI-C8fvzfl-225" value="" style="endArrow=none;html=1;exitX=1;exitY=0;exitDx=0;exitDy=0;entryX=0.5;entryY=1;entryDx=0;entryDy=0;fillColor=#FFFFFF;" edge="1" parent="Yxc4LO8ZKotI-C8fvzfl-221" source="Yxc4LO8ZKotI-C8fvzfl-222" target="Yxc4LO8ZKotI-C8fvzfl-222">
                    <mxGeometry width="50" height="50" relative="1" as="geometry">
                        <mxPoint x="6.295454545454546" y="6.428571428571431" as="sourcePoint"/>
                        <mxPoint x="18.886363636363633" y="19.28571428571429" as="targetPoint"/>
                    </mxGeometry>
                </mxCell>
                <mxCell id="Yxc4LO8ZKotI-C8fvzfl-226" value="" style="endArrow=classic;html=1;fillColor=#FFFFFF;exitX=0.5;exitY=1;exitDx=0;exitDy=0;entryX=0;entryY=0.5;entryDx=0;entryDy=0;" edge="1" parent="1" target="Yxc4LO8ZKotI-C8fvzfl-222">
                    <mxGeometry width="50" height="50" relative="1" as="geometry">
                        <mxPoint x="-827.6045454545451" y="600.0000000000005" as="sourcePoint"/>
                        <mxPoint x="3717.2999999999997" y="416.7857142857144" as="targetPoint"/>
                        <Array as="points">
                            <mxPoint x="-818.7909090909093" y="622.5"/>
                        </Array>
                    </mxGeometry>
                </mxCell>
            </root>
        </mxGraphModel>
    </diagram>
    <diagram id="WJgTl-EFoTF4Q5CzjFSg" name="Page-3">
        <mxGraphModel dx="820" dy="436" grid="1" gridSize="10" guides="1" tooltips="1" connect="1" arrows="1" fold="1" page="1" pageScale="1" pageWidth="850" pageHeight="1100" math="0" shadow="0">
            <root>
                <mxCell id="DYrD5UAIqc9COuznYoz1-0"/>
                <mxCell id="DYrD5UAIqc9COuznYoz1-1" parent="DYrD5UAIqc9COuznYoz1-0"/>
                <mxCell id="sLyvlwE7eGMdLUuPFxGh-1" value="producer1:pthread_t" style="shape=umlLifeline;perimeter=lifelinePerimeter;whiteSpace=wrap;html=1;container=1;collapsible=0;recursiveResize=0;outlineConnect=0;" vertex="1" parent="DYrD5UAIqc9COuznYoz1-1">
                    <mxGeometry x="268.78999999999996" y="250" width="140" height="300" as="geometry"/>
                </mxCell>
                <mxCell id="sLyvlwE7eGMdLUuPFxGh-2" value="" style="html=1;points=[];perimeter=orthogonalPerimeter;" vertex="1" parent="sLyvlwE7eGMdLUuPFxGh-1">
                    <mxGeometry x="65" y="70" width="10" height="80" as="geometry"/>
                </mxCell>
                <mxCell id="sLyvlwE7eGMdLUuPFxGh-3" value="producer2:pthread_t" style="shape=umlLifeline;perimeter=lifelinePerimeter;whiteSpace=wrap;html=1;container=1;collapsible=0;recursiveResize=0;outlineConnect=0;" vertex="1" parent="DYrD5UAIqc9COuznYoz1-1">
                    <mxGeometry x="430" y="250" width="120" height="300" as="geometry"/>
                </mxCell>
                <mxCell id="sLyvlwE7eGMdLUuPFxGh-4" value="consumer:pthread_t" style="shape=umlLifeline;perimeter=lifelinePerimeter;whiteSpace=wrap;html=1;container=1;collapsible=0;recursiveResize=0;outlineConnect=0;" vertex="1" parent="DYrD5UAIqc9COuznYoz1-1">
                    <mxGeometry x="960" y="250.00000000000023" width="150" height="300" as="geometry"/>
                </mxCell>
                <mxCell id="sLyvlwE7eGMdLUuPFxGh-5" value="" style="html=1;points=[];perimeter=orthogonalPerimeter;" vertex="1" parent="sLyvlwE7eGMdLUuPFxGh-4">
                    <mxGeometry x="70" y="76" width="10" height="20" as="geometry"/>
                </mxCell>
                <mxCell id="sLyvlwE7eGMdLUuPFxGh-6" value="" style="html=1;points=[];perimeter=orthogonalPerimeter;" vertex="1" parent="sLyvlwE7eGMdLUuPFxGh-4">
                    <mxGeometry x="70" y="184" width="10" height="40" as="geometry"/>
                </mxCell>
                <mxCell id="sLyvlwE7eGMdLUuPFxGh-7" value="m1: pthread_mutex_t" style="shape=umlLifeline;perimeter=lifelinePerimeter;whiteSpace=wrap;html=1;container=1;collapsible=0;recursiveResize=0;outlineConnect=0;" vertex="1" parent="DYrD5UAIqc9COuznYoz1-1">
                    <mxGeometry x="561.29" y="250" width="174" height="300" as="geometry"/>
                </mxCell>
                <mxCell id="sLyvlwE7eGMdLUuPFxGh-8" value="" style="html=1;points=[];perimeter=orthogonalPerimeter;" vertex="1" parent="sLyvlwE7eGMdLUuPFxGh-7">
                    <mxGeometry x="82" y="70" width="10" height="90" as="geometry"/>
                </mxCell>
                <mxCell id="sLyvlwE7eGMdLUuPFxGh-9" value="pthread_mutex_lock()" style="html=1;verticalAlign=bottom;endArrow=block;entryX=0;entryY=0;exitX=0.807;exitY=-0.002;exitDx=0;exitDy=0;exitPerimeter=0;" edge="1" source="sLyvlwE7eGMdLUuPFxGh-2" target="sLyvlwE7eGMdLUuPFxGh-8" parent="DYrD5UAIqc9COuznYoz1-1">
                    <mxGeometry relative="1" as="geometry">
                        <mxPoint x="350" y="325.0000000000002" as="sourcePoint"/>
                    </mxGeometry>
                </mxCell>
                <mxCell id="sLyvlwE7eGMdLUuPFxGh-10" value="return" style="html=1;verticalAlign=bottom;endArrow=open;dashed=1;endSize=8;exitX=-0.129;exitY=0.259;exitDx=0;exitDy=0;exitPerimeter=0;" edge="1" source="sLyvlwE7eGMdLUuPFxGh-8" target="sLyvlwE7eGMdLUuPFxGh-2" parent="DYrD5UAIqc9COuznYoz1-1">
                    <mxGeometry relative="1" as="geometry">
                        <mxPoint x="340" y="395.0000000000002" as="targetPoint"/>
                        <mxPoint x="642" y="401.0000000000002" as="sourcePoint"/>
                    </mxGeometry>
                </mxCell>
                <mxCell id="sLyvlwE7eGMdLUuPFxGh-11" value="produce()" style="text;html=1;align=right;" vertex="1" parent="DYrD5UAIqc9COuznYoz1-1">
                    <mxGeometry x="250" y="345.0000000000002" width="80" height="30" as="geometry"/>
                </mxCell>
                <mxCell id="sLyvlwE7eGMdLUuPFxGh-12" value="acquisitionManager" style="shape=umlLifeline;perimeter=lifelinePerimeter;whiteSpace=wrap;html=1;container=1;collapsible=0;recursiveResize=0;outlineConnect=0;" vertex="1" parent="DYrD5UAIqc9COuznYoz1-1">
                    <mxGeometry x="760" y="250.00000000000023" width="150" height="300" as="geometry"/>
                </mxCell>
                <mxCell id="sLyvlwE7eGMdLUuPFxGh-13" value="" style="html=1;points=[];perimeter=orthogonalPerimeter;" vertex="1" parent="sLyvlwE7eGMdLUuPFxGh-12">
                    <mxGeometry x="70" y="160" width="10" height="24" as="geometry"/>
                </mxCell>
                <mxCell id="sLyvlwE7eGMdLUuPFxGh-14" value="pthread_mutex_lock()" style="edgeStyle=orthogonalEdgeStyle;rounded=0;orthogonalLoop=1;jettySize=auto;html=1;exitX=0.1;exitY=0.867;exitDx=0;exitDy=0;exitPerimeter=0;" edge="1" source="sLyvlwE7eGMdLUuPFxGh-15" parent="DYrD5UAIqc9COuznYoz1-1">
                    <mxGeometry x="0.0225" y="-13" relative="1" as="geometry">
                        <mxPoint x="653" y="358.0000000000002" as="targetPoint"/>
                        <Array as="points">
                            <mxPoint x="740" y="358.0000000000002"/>
                            <mxPoint x="740" y="358.0000000000002"/>
                        </Array>
                        <mxPoint as="offset"/>
                    </mxGeometry>
                </mxCell>
                <mxCell id="sLyvlwE7eGMdLUuPFxGh-15" value="" style="html=1;points=[];perimeter=orthogonalPerimeter;" vertex="1" parent="DYrD5UAIqc9COuznYoz1-1">
                    <mxGeometry x="830" y="345.0000000000002" width="10" height="15" as="geometry"/>
                </mxCell>
                <mxCell id="sLyvlwE7eGMdLUuPFxGh-16" value="" style="edgeStyle=orthogonalEdgeStyle;rounded=0;orthogonalLoop=1;jettySize=auto;html=1;" edge="1" parent="DYrD5UAIqc9COuznYoz1-1">
                    <mxGeometry relative="1" as="geometry">
                        <mxPoint x="1031" y="346.0000000000002" as="sourcePoint"/>
                        <mxPoint x="839" y="346.0000000000002" as="targetPoint"/>
                    </mxGeometry>
                </mxCell>
                <mxCell id="sLyvlwE7eGMdLUuPFxGh-17" value="getMessage()" style="text;html=1;align=center;verticalAlign=middle;resizable=0;points=[];;labelBackgroundColor=#ffffff;" vertex="1" connectable="0" parent="sLyvlwE7eGMdLUuPFxGh-16">
                    <mxGeometry x="0.4947" y="-2" relative="1" as="geometry">
                        <mxPoint x="31.67" y="-13" as="offset"/>
                    </mxGeometry>
                </mxCell>
                <mxCell id="sLyvlwE7eGMdLUuPFxGh-18" value="return" style="html=1;verticalAlign=bottom;endArrow=open;dashed=1;endSize=8;entryX=-0.117;entryY=-0.012;entryDx=0;entryDy=0;entryPerimeter=0;exitX=0.994;exitY=0.993;exitDx=0;exitDy=0;exitPerimeter=0;" edge="1" source="sLyvlwE7eGMdLUuPFxGh-8" target="sLyvlwE7eGMdLUuPFxGh-13" parent="DYrD5UAIqc9COuznYoz1-1">
                    <mxGeometry relative="1" as="geometry">
                        <mxPoint x="350" y="411.0000000000002" as="targetPoint"/>
                        <mxPoint x="652" y="411.0000000000002" as="sourcePoint"/>
                    </mxGeometry>
                </mxCell>
                <mxCell id="sLyvlwE7eGMdLUuPFxGh-19" value="return" style="html=1;verticalAlign=bottom;endArrow=open;dashed=1;endSize=8;entryX=0.01;entryY=0.023;entryDx=0;entryDy=0;entryPerimeter=0;exitX=1.183;exitY=0.959;exitDx=0;exitDy=0;exitPerimeter=0;" edge="1" source="sLyvlwE7eGMdLUuPFxGh-13" target="sLyvlwE7eGMdLUuPFxGh-6" parent="DYrD5UAIqc9COuznYoz1-1">
                    <mxGeometry relative="1" as="geometry">
                        <mxPoint x="838.8299999999999" y="489.5200000000002" as="targetPoint"/>
                        <mxPoint x="663" y="487.7600000000002" as="sourcePoint"/>
                    </mxGeometry>
                </mxCell>
                <mxCell id="sLyvlwE7eGMdLUuPFxGh-20" value="sum()" style="text;html=1;" vertex="1" parent="DYrD5UAIqc9COuznYoz1-1">
                    <mxGeometry x="1040" y="318.0000000000002" width="80" height="30" as="geometry"/>
                </mxCell>
                <mxCell id="sLyvlwE7eGMdLUuPFxGh-21" value="sum()" style="text;html=1;" vertex="1" parent="DYrD5UAIqc9COuznYoz1-1">
                    <mxGeometry x="1040" y="425.0000000000002" width="80" height="30" as="geometry"/>
                </mxCell>
                <mxCell id="sLyvlwE7eGMdLUuPFxGh-22" value="pthread_mutex_unlock()" style="html=1;verticalAlign=bottom;endArrow=block;" edge="1" source="sLyvlwE7eGMdLUuPFxGh-2" parent="DYrD5UAIqc9COuznYoz1-1">
                    <mxGeometry relative="1" as="geometry">
                        <mxPoint x="360" y="375.0000000000002" as="sourcePoint"/>
                        <mxPoint x="643" y="375.0000000000002" as="targetPoint"/>
                    </mxGeometry>
                </mxCell>
                <mxCell id="sLyvlwE7eGMdLUuPFxGh-23" value="return" style="html=1;verticalAlign=bottom;endArrow=open;dashed=1;endSize=8;exitX=-0.229;exitY=0.844;exitDx=0;exitDy=0;exitPerimeter=0;" edge="1" source="sLyvlwE7eGMdLUuPFxGh-8" target="sLyvlwE7eGMdLUuPFxGh-2" parent="DYrD5UAIqc9COuznYoz1-1">
                    <mxGeometry relative="1" as="geometry">
                        <mxPoint x="343" y="393.0000000000002" as="targetPoint"/>
                        <mxPoint x="639.5" y="395" as="sourcePoint"/>
                    </mxGeometry>
                </mxCell>
            </root>
        </mxGraphModel>
    </diagram>
</mxfile>